<svg id="Layer_1" data-name="Layer 1" xmlns="http://www.w3.org/2000/svg" viewBox="0 0 80 50"><defs><style>.cls-1{fill:none;}.cls-2{fill:#493499;}.cls-3{fill:#26185c;}.cls-4{fill:#fff;}.cls-5{fill:#23164e;}</style></defs><path class="cls-1" d="M62.4,11.66a3.31,3.31,0,0,1-.27-.26,3.68,3.68,0,0,1,.15.35Z"/><path class="cls-1" d="M52.05,25.65l0,0H52Z"/><path class="cls-2" d="M74.3,34.09c.09-.1.19-.2.27-.3a5.12,5.12,0,0,0,1.29-2.92c0-1.89-2-3.94-5.25-4.49a3.37,3.37,0,0,0,.63-1.93A14,14,0,0,0,71,22.08a18.16,18.16,0,0,1-.24-2.68,20.71,20.71,0,0,1,.51-3.87,10.74,10.74,0,0,0,.29-1.94,3.37,3.37,0,0,0-1.16-2.69l-.17-.13A5,5,0,0,0,71.13,8a5,5,0,0,0-1.5-3.69A5.25,5.25,0,0,0,66,2.84a5.08,5.08,0,0,0-5.27,5,5.19,5.19,0,0,0,.38,2,6,6,0,0,0-4.53-2,7.6,7.6,0,0,0-1.21.08c.11-.32.23-.64.34-.94a8.6,8.6,0,0,0,.69-2.65h0A3.22,3.22,0,0,0,53.14,1c-2.06,0-5.92,1-7.4,3.56a5.08,5.08,0,0,0-1.12-1.65,5.32,5.32,0,0,0-7.28-.12,5,5,0,0,0-1.6,3.62,4.9,4.9,0,0,0,1.49,3.67l.16.15a5.37,5.37,0,0,0-.78.72l-.29-.3a5.34,5.34,0,0,0-3.48-1.36,6.88,6.88,0,0,0-3.07.68c0-.62.1-1.26.15-1.84.09-1,.16-1.87.17-2.38h0a3.4,3.4,0,0,0-3.67-3.58A7.87,7.87,0,0,0,21.9,3.82a6,6,0,0,0-2.67,4.59A21,21,0,0,0,19.35,11,8.53,8.53,0,0,0,14,8.9C9.1,8.82,4.12,12,4,18.23a8.2,8.2,0,0,0,2.73,6.25,9.21,9.21,0,0,0,2.07,1.43A3.94,3.94,0,0,0,6.68,29,7.06,7.06,0,0,0,7,30.94a11.24,11.24,0,0,1,.53,3.44c-.08,4.17-.3,6.71-.45,8.39C7,43.65,7,44.34,7,44.93a4.14,4.14,0,0,0,1,3A3.68,3.68,0,0,0,10.62,49h.18a11.57,11.57,0,0,0,3.58-.57c2.6-.91,3-2.53,3-3.42a8,8,0,0,0-.21-1.6,17.91,17.91,0,0,1-.3-1.79c.2,0,.42,0,.64,0a7,7,0,0,0,5.2-2.2A5.68,5.68,0,0,0,24,41.06a6.36,6.36,0,0,0,4.12,1.6,6.58,6.58,0,0,0,3.42-.89A3.4,3.4,0,0,0,34.16,43h.08A8.5,8.5,0,0,0,38,42a6.78,6.78,0,0,0,1.81-1.32c0,.71-.09,1.21-.13,1.64s-.07.76-.08,1.14c0,.79.29,2.26,2.5,3.29a9.81,9.81,0,0,0,3.76.83h.08a3.18,3.18,0,0,0,3.43-3.38c0-1.71-.06-3-.12-3.82a3,3,0,0,0,1.19-.25,3.18,3.18,0,0,0,.69.5c0,.84-.09,1.41-.14,1.89s-.07.76-.08,1.14c0,.79.29,2.26,2.5,3.29a9.62,9.62,0,0,0,3.76.82h.09a3.19,3.19,0,0,0,3.43-3.37,37,37,0,0,0-.13-3.83h.2c1.27,2,4.89,3.54,8,3.6h.15a7.56,7.56,0,0,0,5-1.74A5.9,5.9,0,0,0,76,38,5.15,5.15,0,0,0,74.3,34.09ZM62.4,11.66l-.12.09a3.68,3.68,0,0,0-.15-.35A3.31,3.31,0,0,0,62.4,11.66Zm-10.35,14,0,0h.07Z"/><path class="cls-3" d="M15.78,17.61c-1.12,0-.48-1.45-1.69-1.47s-1.49.88-1.5,1.79a2.11,2.11,0,0,0,2.24,2.19c2.22,0,2.82-1.94,3.71-1.92s2.33,1.7,2.3,3-2.75,4-7.39,3.9c-3.51-.06-6.92-2.83-6.86-6.67.09-4.9,3.89-7.44,7.94-7.37,2.87.05,5.33,2.16,5.3,3.74C19.81,16.08,17,17.64,15.78,17.61Z"/><path class="cls-3" d="M28.7,6.33c0,1-.4,4.25-.43,6.08,0,1.18.13,1.45.54,1.46s2.07-2,4.59-2a3,3,0,0,1,3.09,2.93c0,1.77-.44,2.38-.48,4.47,0,2.3.87,2.53.85,3.55s-2.52,2.72-4.47,2.69c-1.48,0-2.27-.77-2.25-2.08,0-1.9.38-3,.4-4.34,0-.91-.35-1.48-.81-1.49s-1.24.6-1.27,2.13c0,2,.31,2.58.28,3.94S26.85,26.07,24.33,26c-1.15,0-1.84-.54-1.82-1.59,0-.59.29-1.31.31-2.54.12-7.11-1.08-9-1-12.84,0-2.33,3.24-4.32,5.17-4.28C28.21,4.79,28.71,5.33,28.7,6.33Z"/><path class="cls-3" d="M45.19,12.73c0,1-.75,3-.8,5.81,0,2,.48,3.71.45,5.05,0,.83-.67,1.6-2.2,1.57-2.39,0-4.41-1.07-4.39-2.12s.68-3.23.71-5.21-.65-2.94-.63-4.09c0-1.42,2.84-2.58,5.12-2.54C44.52,11.22,45.21,11.74,45.19,12.73ZM41.56,4a3.15,3.15,0,0,1,3.17,3.17,3.1,3.1,0,0,1-3.28,3,3.06,3.06,0,0,1-3.13-3.11A3.11,3.11,0,0,1,41.56,4Z"/><path class="cls-3" d="M55,4.88c0,1.15-1.41,3.41-1.5,5.63,0,.49.09.84.44.84s1.31-1,3.19-.93c2.7,0,4.46,2.19,4.4,5.73-.09,5.07-3.76,8.2-7.87,8.13-2.87-.05-4.6-.83-5.74-2.92-1-1.73-1.21-3.19-1.14-7.07a42.61,42.61,0,0,1,1-7.47c.49-2.09,4-3.26,5.91-3.23A1.23,1.23,0,0,1,55,4.88Zm-2,13.4c0,1,.32,1.46.83,1.47,1,0,1.77-1.55,1.8-3.43,0-.89-.32-1.43-.94-1.44C53.85,14.86,53.07,16.49,53,18.28Z"/><path class="cls-3" d="M70.2,14.16c0,1-.75,3-.8,5.81,0,2,.47,3.71.45,5.05,0,.83-.67,1.6-2.2,1.57-2.39,0-4.41-1.07-4.39-2.12s.67-3.23.71-5.21-.65-2.94-.63-4.09c0-1.42,2.84-2.58,5.12-2.54C69.53,12.65,70.22,13.17,70.2,14.16ZM66.57,5.43A3.14,3.14,0,0,1,69.73,8.6a3.21,3.21,0,1,1-3.16-3.17Z"/><path class="cls-4" d="M15.2,17c-1.13,0-.49-1.46-1.69-1.48S12,16.42,12,17.33a2.1,2.1,0,0,0,2.24,2.18c2.23,0,2.83-1.93,3.71-1.92s2.33,1.71,2.31,3.05-2.75,4-7.39,3.89C9.35,24.47,5.94,21.7,6,17.87c.08-4.91,3.88-7.45,7.93-7.38,2.87,0,5.33,2.16,5.3,3.74C19.22,15.47,16.4,17,15.2,17Z"/><path class="cls-4" d="M28.11,5.72c0,1-.39,4.26-.43,6.08,0,1.18.14,1.45.54,1.46s2.08-2,4.6-2A3,3,0,0,1,35.9,14.2c0,1.77-.44,2.38-.48,4.47,0,2.31.87,2.54.85,3.56S33.76,25,31.8,24.91c-1.47,0-2.27-.76-2.24-2.08,0-1.9.37-3,.39-4.34,0-.91-.34-1.48-.8-1.48s-1.25.59-1.27,2.12c0,2,.3,2.58.28,3.95s-1.9,2.38-4.42,2.34c-1.15,0-1.84-.55-1.82-1.59,0-.59.29-1.31.31-2.55.13-7.1-1.07-9-1-12.84,0-2.33,3.24-4.31,5.18-4.28C27.63,4.18,28.13,4.73,28.11,5.72Z"/><path class="cls-4" d="M44.61,12.12c0,1-.75,3.05-.8,5.81,0,2,.47,3.71.45,5.05,0,.83-.67,1.6-2.2,1.57-2.39,0-4.41-1.07-4.39-2.11s.67-3.24.7-5.22-.64-2.94-.62-4.09c0-1.42,2.83-2.58,5.11-2.54C43.94,10.61,44.62,11.13,44.61,12.12ZM41,3.39a3.14,3.14,0,0,1,3.16,3.17A3.21,3.21,0,1,1,41,3.39Z"/><path class="cls-4" d="M54.43,4.27c0,1.16-1.4,3.41-1.49,5.64,0,.48.09.83.44.84s1.3-1,3.18-.94C59.27,9.86,61,12,61,15.55c-.09,5.07-3.77,8.19-7.87,8.12-2.87-.05-4.6-.83-5.75-2.92-1-1.73-1.2-3.18-1.13-7.07a40.79,40.79,0,0,1,1-7.47c.49-2.08,4-3.26,5.9-3.22A1.21,1.21,0,0,1,54.43,4.27Zm-2,13.41c0,1,.32,1.45.83,1.46,1,0,1.78-1.55,1.81-3.43,0-.88-.33-1.43-.94-1.44C53.26,14.26,52.48,15.88,52.45,17.68Z"/><path class="cls-4" d="M69.61,13.55c0,1-.75,3.05-.8,5.81,0,2,.48,3.71.45,5.05,0,.83-.67,1.6-2.2,1.57-2.38,0-4.41-1.07-4.39-2.11s.68-3.24.71-5.22-.65-2.94-.62-4.09c0-1.42,2.83-2.58,5.11-2.54C68.94,12,69.63,12.56,69.61,13.55ZM66,4.82A3.15,3.15,0,0,1,69.15,8,3.21,3.21,0,1,1,66,4.82Z"/><path class="cls-5" d="M14.83,28.74c.34,0,2.15-1.64,4.24-1.6,2.92.05,4.89,2.67,4.83,6.33s-2.37,6.86-5.73,6.8a9.37,9.37,0,0,1-2.39-.43c-.24,0-.34.2-.35.59A33.5,33.5,0,0,0,16,45.58c0,1.45-2.9,2.07-4.76,2-1.09,0-1.75-.57-1.72-2s.48-4.2.6-10.55c0-2.77-.88-4.41-.87-5.34,0-1.22,3.05-2.64,4.1-2.62S14.5,28.74,14.83,28.74Zm.49,5.93c0,.72.3,1.11.84,1.12,1,0,1.78-1.49,1.8-2.65,0-.73-.29-1.17-.86-1.18S15.35,33.09,15.32,34.67Z"/><path class="cls-5" d="M31.75,29.36c-.05,2.5-.88,4.19-.91,6.08,0,.59.29,1,.7,1,.91,0,1.83-1,1.87-3.38,0-1.21-.43-2-.41-3.08s2.13-2,4.5-1.94c1.24,0,2.06.61,2,1.95,0,1.83-1,3.75-1.06,5.92,0,1.91.84,1.93.83,2.91s-2.89,2.48-4.52,2.45-1.74-2.17-2.08-2.18-1.45,1.86-4,1.82a3.89,3.89,0,0,1-4-3.74c0-2.43.49-2.88.51-4.25s-.48-2.34-.46-3.19c0-1.11,2.78-2.56,4.85-2.52A1.87,1.87,0,0,1,31.75,29.36Z"/><path class="cls-5" d="M52.17,30.11c0,1.62-2.29,2.52-3.48,2.49-.78,0-.17-2.35-1.07-2.37-.65,0-.89.87-.91,1.8,0,1.16,0,2.3.4,2.3a12.91,12.91,0,0,0,2-.25c.93,0,1.7,1.64,1.67,3.42,0,1-.36,1.47-1,1.45s-2.06,0-2.08.85.25,2.25.2,4.94c0,.95-.41,1.43-1.5,1.42-2.12,0-4.32-1-4.3-2.09,0-.83.21-1.63.25-4.06,0-.49-.17-.67-.71-.68-.91,0-1.4-1.32-1.37-3.18,0-.62.51-.84.92-1s.55-.2.56-.64a35.75,35.75,0,0,1-.38-3.75c0-2.87,2.26-4.95,5.59-4.89C50.07,25.91,52.21,27.91,52.17,30.11Z"/><path class="cls-5" d="M63.48,30.31c0,1.62-2.29,2.51-3.48,2.49-.77,0-.17-2.35-1.07-2.37-.64,0-.89.87-.91,1.8,0,1.16,0,2.29.4,2.3a14.1,14.1,0,0,0,2-.25c.93,0,1.7,1.63,1.67,3.42,0,.95-.36,1.46-1,1.45s-2.07,0-2.09.84.25,2.26.2,4.94c0,1-.41,1.44-1.5,1.42-2.11,0-4.32-1-4.3-2.09,0-.82.21-1.62.25-4,0-.49-.17-.67-.71-.68-.9,0-1.4-1.32-1.37-3.18,0-.62.51-.84.93-1s.54-.19.55-.63a36.81,36.81,0,0,1-.37-3.76c0-2.86,2.25-4.94,5.59-4.88C61.38,26.11,63.52,28.11,63.48,30.31Z"/><path class="cls-5" d="M72.22,34.09c-.67,0-1.36-1.78-2.45-1.8a.59.59,0,0,0-.63.58c0,1.63,5.52,2.09,5.46,5.73,0,2.12-2.06,4.2-5.21,4.15-3.62-.07-6.56-2.13-6.54-3.14a3.59,3.59,0,0,1,2.69-2.82c.75,0,1.51,1.94,3,2a.66.66,0,0,0,.65-.66c0-1.44-5-1.58-5-5.54,0-2.27,2-3.78,5.33-3.73s4.88,1.85,4.87,2.62C74.45,32.37,73,34.1,72.22,34.09Z"/><path class="cls-4" d="M14.25,28.14c.33,0,2.15-1.65,4.24-1.61,2.92,0,4.89,2.67,4.82,6.34s-2.37,6.85-5.72,6.8a10.6,10.6,0,0,1-2.4-.43c-.23,0-.34.2-.35.58A33.22,33.22,0,0,0,15.43,45c0,1.44-2.91,2.06-4.77,2-1.08,0-1.74-.57-1.72-2s.49-4.21.6-10.56c.05-2.76-.88-4.41-.86-5.34,0-1.21,3-2.63,4.1-2.61S13.91,28.13,14.25,28.14Zm.49,5.92c0,.72.29,1.12.83,1.13,1,0,1.78-1.5,1.81-2.66,0-.72-.29-1.17-.86-1.18S14.77,32.49,14.74,34.06Z"/><path class="cls-4" d="M31.16,28.75c0,2.51-.87,4.2-.91,6.08,0,.6.3,1,.71,1,.9,0,1.82-1,1.87-3.38,0-1.21-.43-2-.41-3.08,0-.95,2.12-2,4.5-1.93,1.24,0,2,.6,2,1.94,0,1.84-1,3.76-1.06,5.93,0,1.91.85,1.92.83,2.9s-2.89,2.49-4.51,2.46-1.75-2.18-2.08-2.18-1.46,1.86-4,1.81a3.89,3.89,0,0,1-4-3.74c0-2.42.49-2.88.51-4.25S24.19,30,24.2,29.1c0-1.12,2.79-2.57,4.85-2.53A1.88,1.88,0,0,1,31.16,28.75Z"/><path class="cls-4" d="M51.58,29.5c0,1.63-2.29,2.52-3.48,2.5-.77,0-.16-2.36-1.07-2.37-.64,0-.89.86-.91,1.79,0,1.16,0,2.3.4,2.31a13.89,13.89,0,0,0,2-.25c.93,0,1.7,1.63,1.67,3.41,0,1-.36,1.47-1,1.46s-2.07,0-2.08.84.24,2.25.19,4.94c0,.95-.41,1.44-1.49,1.42-2.12,0-4.33-1-4.31-2.09,0-.83.21-1.63.25-4.05,0-.49-.16-.68-.71-.69-.9,0-1.4-1.31-1.36-3.17,0-.62.5-.85.92-1s.55-.2.55-.64a36.52,36.52,0,0,1-.37-3.75c0-2.87,2.26-4.95,5.59-4.89C49.49,25.3,51.62,27.31,51.58,29.5Z"/><path class="cls-4" d="M62.89,29.7c0,1.63-2.29,2.52-3.48,2.5-.77,0-.16-2.36-1.06-2.37-.65,0-.9.86-.91,1.79,0,1.16,0,2.3.39,2.3a14.37,14.37,0,0,0,2-.24c.93,0,1.71,1.63,1.68,3.41,0,1-.37,1.47-1,1.46s-2.07,0-2.08.84.24,2.25.2,4.94c0,1-.42,1.44-1.5,1.42-2.12,0-4.32-1-4.31-2.09,0-.83.21-1.63.26-4.06,0-.49-.17-.67-.72-.68-.9,0-1.39-1.32-1.36-3.18,0-.62.5-.84.92-1s.55-.2.55-.64c0-.9-.4-1.79-.37-3.75.05-2.87,2.26-4.95,5.59-4.89C60.8,25.5,62.93,27.5,62.89,29.7Z"/><path class="cls-4" d="M71.64,33.48c-.67,0-1.37-1.78-2.45-1.8a.59.59,0,0,0-.63.59c0,1.62,5.52,2.08,5.45,5.72,0,2.12-2.06,4.2-5.21,4.15C65.18,42.08,62.25,40,62.27,39A3.61,3.61,0,0,1,65,36.18c.75,0,1.52,1.94,3,2a.69.69,0,0,0,.66-.66c0-1.45-5-1.59-5-5.54,0-2.27,2.06-3.79,5.34-3.73s4.87,1.84,4.86,2.61C73.86,31.76,72.44,33.5,71.64,33.48Z"/></svg>