<svg id="Layer_1" data-name="Layer 1" xmlns="http://www.w3.org/2000/svg" viewBox="0 0 80 50"><defs><style>.cls-1{fill:#bbb;}</style></defs><path class="cls-1" d="M14.46,16.77c-1.16,0-.5-1.5-1.74-1.52s-1.53.91-1.55,1.85a2.17,2.17,0,0,0,2.31,2.25c2.29,0,2.9-2,3.81-2s2.4,1.75,2.38,3.13-2.83,4.09-7.61,4C8.44,24.46,4.93,21.61,5,17.66c.09-5.05,4-7.66,8.17-7.59,3,0,5.48,2.22,5.45,3.85C18.6,15.19,15.7,16.8,14.46,16.77Z"/><path class="cls-1" d="M27.75,5.15c0,1-.41,4.39-.44,6.27,0,1.21.14,1.49.56,1.5S30,10.83,32.6,10.87a3.11,3.11,0,0,1,3.17,3c0,1.82-.45,2.45-.49,4.61,0,2.37.89,2.61.87,3.66s-2.58,2.79-4.6,2.76c-1.52,0-2.33-.79-2.31-2.14,0-2,.39-3.09.41-4.47,0-.93-.36-1.52-.83-1.53s-1.28.61-1.31,2.19c0,2,.31,2.65.29,4.06s-1.95,2.45-4.54,2.41c-1.19,0-1.9-.56-1.88-1.64,0-.6.3-1.34.32-2.61.13-7.32-1.11-9.25-1-13.22C20.7,5.56,24,3.51,26,3.55,27.26,3.57,27.77,4.13,27.75,5.15Z"/><path class="cls-1" d="M44.73,11.75c0,1-.77,3.13-.82,6,0,2,.48,3.82.46,5.2,0,.86-.69,1.65-2.26,1.62-2.46,0-4.54-1.1-4.52-2.18s.69-3.33.73-5.37-.67-3-.65-4.21c0-1.46,2.92-2.65,5.27-2.61C44,10.19,44.75,10.72,44.73,11.75ZM41,2.76A3.23,3.23,0,0,1,44.25,6,3.3,3.3,0,1,1,41,2.76Z"/><path class="cls-1" d="M54.84,3.66c0,1.19-1.44,3.51-1.54,5.8,0,.5.1.86.46.87s1.34-1,3.27-1c2.79.05,4.6,2.27,4.54,5.91-.09,5.22-3.88,8.44-8.1,8.36-2.95-.05-4.73-.85-5.91-3-1-1.78-1.24-3.28-1.17-7.28a42.56,42.56,0,0,1,1-7.69c.5-2.14,4.14-3.35,6.07-3.32A1.26,1.26,0,0,1,54.84,3.66Zm-2,13.8c0,1,.33,1.5.85,1.51,1,0,1.83-1.6,1.86-3.53,0-.91-.33-1.47-1-1.48C53.64,13.94,52.84,15.61,52.81,17.46Z"/><path class="cls-1" d="M70.47,13.22c0,1-.77,3.13-.82,6,0,2,.48,3.81.46,5.2,0,.85-.69,1.64-2.27,1.61-2.45,0-4.53-1.1-4.51-2.18s.69-3.32.73-5.37-.67-3-.65-4.21c0-1.46,2.92-2.65,5.27-2.61C69.78,11.66,70.49,12.2,70.47,13.22Zm-3.74-9A3.23,3.23,0,0,1,70,7.49a3.3,3.3,0,1,1-3.26-3.26Z"/><path class="cls-1" d="M13.48,28.23c.35,0,2.21-1.69,4.37-1.65,3,.05,5,2.74,5,6.52s-2.44,7.06-5.89,7a10.14,10.14,0,0,1-2.47-.45c-.24,0-.35.21-.35.61a33.27,33.27,0,0,0,.6,5.3c0,1.49-3,2.13-4.91,2.1-1.11,0-1.8-.59-1.77-2.11s.5-4.32.62-10.86c0-2.85-.91-4.54-.89-5.5,0-1.25,3.13-2.71,4.22-2.69S13.14,28.22,13.48,28.23Zm.51,6.1c0,.74.3,1.15.86,1.16,1.06,0,1.83-1.54,1.85-2.74,0-.74-.3-1.2-.88-1.21S14,32.71,14,34.33Z"/><path class="cls-1" d="M30.89,28.86c-.05,2.58-.9,4.32-.93,6.26,0,.61.3,1,.72,1,.93,0,1.88-1,1.93-3.48,0-1.25-.45-2-.43-3.17,0-1,2.19-2,4.64-2,1.27,0,2.11.62,2.09,2,0,1.89-1,3.86-1.09,6.1,0,2,.87,2,.85,3s-3,2.55-4.64,2.53-1.8-2.24-2.14-2.25-1.5,1.92-4.08,1.87a4,4,0,0,1-4.13-3.85c0-2.5.5-3,.52-4.38s-.49-2.4-.47-3.27c0-1.15,2.86-2.64,5-2.6A1.92,1.92,0,0,1,30.89,28.86Z"/><path class="cls-1" d="M51.91,29.63c0,1.68-2.36,2.59-3.58,2.57-.8,0-.17-2.42-1.1-2.44-.67,0-.92.89-.94,1.85,0,1.2,0,2.37.41,2.37a14.92,14.92,0,0,0,2.08-.25c1,0,1.75,1.68,1.72,3.51,0,1-.37,1.51-1,1.5s-2.13,0-2.14.87.25,2.31.2,5.08c0,1-.43,1.48-1.54,1.46-2.18,0-4.45-1-4.43-2.15,0-.85.21-1.67.26-4.17,0-.51-.18-.7-.74-.71-.93,0-1.43-1.35-1.4-3.26,0-.64.52-.87,1-1s.56-.2.57-.66a37.08,37.08,0,0,1-.39-3.86c0-2.95,2.33-5.09,5.76-5C49.75,25.31,52,27.37,51.91,29.63Z"/><path class="cls-1" d="M63.55,29.84c0,1.67-2.35,2.59-3.58,2.57-.79,0-.17-2.43-1.1-2.44-.66,0-.92.89-.93,1.84,0,1.2,0,2.37.41,2.38a14,14,0,0,0,2.07-.26c1,0,1.76,1.68,1.73,3.51,0,1-.38,1.51-1,1.5s-2.13,0-2.14.87.25,2.32.2,5.08c0,1-.42,1.48-1.54,1.46-2.18,0-4.45-1-4.43-2.15,0-.85.22-1.67.26-4.17,0-.5-.17-.69-.73-.7-.93,0-1.44-1.36-1.41-3.27,0-.64.52-.87,1-1.05s.56-.2.57-.65a38.16,38.16,0,0,1-.38-3.87c.05-2.95,2.32-5.09,5.75-5C61.4,25.52,63.59,27.58,63.55,29.84Z"/><path class="cls-1" d="M72.55,33.73c-.69,0-1.4-1.83-2.52-1.85a.61.61,0,0,0-.65.6c0,1.67,5.68,2.15,5.62,5.89,0,2.18-2.12,4.33-5.37,4.27-3.72-.06-6.74-2.19-6.72-3.23a3.69,3.69,0,0,1,2.76-2.9c.77,0,1.56,2,3.13,2a.7.7,0,0,0,.68-.68c0-1.49-5.19-1.63-5.12-5.7,0-2.34,2.12-3.9,5.5-3.84s5,1.9,5,2.7S73.38,33.75,72.55,33.73Z"/></svg>