<?xml version="1.0" encoding="utf-8"?>
<!-- Generator: Adobe Illustrator 22.1.0, SVG Export Plug-In . SVG Version: 6.00 Build 0)  -->
<svg version="1.1" id="Layer_1" xmlns="http://www.w3.org/2000/svg" xmlns:xlink="http://www.w3.org/1999/xlink" x="0px" y="0px"
	 viewBox="0 0 300 249" style="enable-background:new 0 0 300 249;" xml:space="preserve">
<style type="text/css">
	.st0{fill:#D2D2D2;}
</style>
<g id="turtle-footer-1">
	<g>
		<path id="Fill-1" class="st0" d="M278.3,204.9c2.6,1.3-1.3,6.2,3.1,6.6c2.4,0.2,5.6-2.1,5.4-4.8c-0.2-2.8-3.3-4.3-5.9-5.2
			C279,200.9,278.5,202.7,278.3,204.9L278.3,204.9z M75.5,172.3c-1.6,0.3-1.4,2.2-1.2,3.7c0.4,3.2,0.4,7.3,4.7,7.6
			c2.8,0.2,5.2-2.1,6-5.1C85.5,176.9,78.8,172.2,75.5,172.3L75.5,172.3z M227.4,221.5c-12,4.3-24.1,4.6-36.3,2.2
			c-8.5-1.7-8.5-1.8-10.9,6.2c-0.4,1.4-1.1,2.8-1.8,4.1c-1.1,2.3-0.1,3.2,2.1,2.8c7.7-1.4,15.6-0.7,23.1-2.9
			C212.3,231.4,220.9,228.7,227.4,221.5L227.4,221.5z M272.3,222.2c0.5-4.5-0.5-9.6-1.4-14.7c-2-10.5-7.8-13.1-17.2-8.2
			c-1.4,0.8-2.8,1.8-4,2.9c-6.3,5.3-9.6,12.6-13.6,19.5c-0.9,1.6-0.6,3.2,0,4.8c3,8.5,9.7,12.7,17.9,14c10.9,1.7,18.9-1.5,18.5-14.7
			C272.3,224.9,272.3,223.9,272.3,222.2L272.3,222.2z M89.4,188c0.3,2,0.6,3.6,0.9,5.2c3.1,15.7,12,26.8,26.4,33.3
			c5.1,2.3,5.3,1.8,5.6-3.9c0.4-8.9,1.4-18,6.7-25.2c3.5-4.7,5.4-8,2.5-13.6c-1.2-2.3-1.7-2.8-3.7-1.6c-10,6.3-20.2,5.5-30.5,0.8
			C93.8,181.5,89.4,184.6,89.4,188L89.4,188z M148.4,118c0.5,2.5,0.7,4.1,1.2,5.6c2.8,8.4,1.9,16.7-0.1,25.1
			c-1.7,7-4.6,13.5-7.2,20.2c-3.9,9.9-0.5,16.6,9.5,18.9c7.2,1.6,13.8,4.4,18.8,9.7c4.4,4.7,9.1,9.3,13.5,14
			c3.4,3.6,7.6,5.7,12.6,6.7c15.5,2.9,28.4-2.3,40-12.1c7.1-6,13.5-12.8,22.7-15.8c4.1-1.3,7.7-1.1,11.6,0.2
			c1.6,0.5,3.3,3.9,5.2,0.4c1.6-3,3.2-6,0-9.1c-1.9-1.8-4.1-2.7-6.7-2.7c-6.6,0-12.3,2.7-17.8,5.9c-6.2,3.7-11.4,8.6-17.1,12.9
			c-10,7.5-20.4,13.9-33.6,13.1c-5.7-0.3-10.6-2-14.8-6.1c-3-3-5.1-6.5-7.7-9.7c-5.7-7.1-13.9-9.9-22.3-12.5
			c-8.1-2.5-9.6-5.8-6.9-13.9c2.5-7.8,6.7-14.9,9-22.7C161.4,135.8,157.4,123.7,148.4,118L148.4,118z M152,85.6
			c8.4,2.2,17,3.7,24.8,7.6c2.6,1.3,3.5,3,3.7,5.8c0.3,6.9-1,13.6-1.2,20.4c-0.2,8-1,8.6-9.1,8.6c-1,0-2-0.1-3,0
			c-1.3,0.2-3.4-0.6-3.2,1.8c0.1,1.8,1,3.2,3.2,3.1c1.7,0,3.4,0.2,5,0c4.5-0.6,7.3,1.2,10,4.9c4.7,6.4,9.8,12.6,15.2,18.4
			c3.1,3.3,3.5,6.3,1.8,10.3c-3.2,7.9-7.3,15.3-11.5,22.7c-1.4,2.4-1,4.4,0.9,5.7c2.6,1.7,3-1.3,3.7-2.5c5.5-8.8,10.2-18,13.8-27.6
			c1.1-2.8,2.5-3.8,5.5-3.9c7.1-0.1,14.3,0.8,21.4-0.8c2.4-0.6,4.1,0.8,5.3,2.8c2.8,4.4,5.9,8.5,8.1,13.1c0.7,1.5,1,4.5,4,3
			c2.6-1.4,1.7-3.6,0.6-5.6c-2.1-3.6-4-7.3-6.5-10.6c-2.3-3.1-2.9-5.7-1.7-9.5c2.1-6.3,4.5-12.6,4.5-19.3c0-1.7,0.7-2.8,2.4-3.3
			c1-0.4,2.4-0.7,2.1-2.3c-0.2-1.2-1-2.2-2.3-2.3c-2.8-0.3-3.7-2.4-4.9-4.4c-4.5-7.4-9.7-14.3-15.7-20.6c-3.6-3.8-9.1-6.8-5.6-13.5
			c0.2-0.5,0-1.3-0.3-1.9c-0.6-1.3-1.5-2.3-3-2.3c-1.6,0-1.5,1.5-1.6,2.6c-0.5,4.2-3.1,4.5-6.5,3.7c-8-1.8-16.1-2.8-24.2-0.5
			c-2.8,0.8-5.1,0.4-7.6-0.8c-6.2-2.8-12.7-5.1-19.4-6.3C157.4,81.6,153.8,81.3,152,85.6L152,85.6z M77.3,15
			c-2.5,0.3-5.6-0.2-8.7,0.8c-13.9,4.4-25.1,12.3-32.4,25c-6.3,10.9-12.4,22-14.4,34.6c-1.2,7.4-0.3,15-0.5,22.5
			c-0.3,9.3,2.8,17.6,7.5,25.5c7.1,11.9,17.8,20,29.1,27.5c5.2,3.5,10.8,6.7,15.5,10.9c9.4,8.6,20.4,14.5,32.2,18.6
			c12.2,4.3,22.9,2.2,29.6-10.7c2.2-4.3,4.8-8.4,6.3-13c3.9-11.8,7.6-23.5,1.8-35.9c-1.3-2.8-1.6-6.1-1.9-9.2
			c-1.6-15.3-2.2-30.7-4.8-46C131.9,38.1,105.9,14.9,77.3,15L77.3,15z M72.3,249c-3.9-12.3-5.6-24.9-5-37.8c0.1-2.8,0.3-5.6,0.7-8.4
			c0.8-5.5,2.1-10.9-1.2-16.4c-2.3-4-2.2-9.1-1.1-13.7c0.8-3.1-0.3-4.3-2.7-6c-10.5-7-22-12.5-31.7-20.7c-14.3-12-22.2-27.2-23-45.8
			c-0.4-11-1.1-22.2,2.1-32.7C17,45.8,25,24.7,44.8,11.1C64-2,84.8-2.4,105.7,6.4c23.3,9.8,37.1,27.9,43,52.3
			c0.9,3.5-0.4,8.6,2.4,10.2c2.4,1.3,5.9-2.7,9.2-3.7c4-1.3,8-2.4,12.2-2.2c10.5,0.5,20.9-0.9,31.4,0.9
			c17.8,3.1,30.9,13.3,41.1,27.7c16.3,23,27.6,48.2,32.3,76.1c0.3,1.6,1,2.7,2.3,3.6c6.6,4.6,10.3,10.8,9.6,19
			c-0.2,2.4,0.8,3.9,2.9,5.2c9.2,5.6,10.1,13.7,2.6,21.4c-8.6,8.8-8.8,8.8-11.4,20.8c-0.9,4.2-3.9,7.3-5.1,11.2h-38
			c-2.3-4.6-7.2-6.6-10.1-10.6c-1.8-2.4-3.8-2.5-6.5-1.2c-6.1,2.9-12.7,4.7-19.4,5.9c-8.5,1.5-17,2.2-25.6,2.8c-2.2,0.1-4,0.4-4.3,3
			h-13c0.1-1.5,1-2.4,1.9-3.4c5.4-5.4,8.4-12.2,11.4-19.1c3.2-7.2,1.2-13.3-3.4-18.9c-2.2-2.7-4.7-5.2-7.4-7.4
			c-12.8-10.7-26.6-6-29.8,10c-2.6,12.9-4.4,25.8-0.8,38.9h-12c-0.4-2.6-0.7-5.2-1-7.9c-0.2-1.6-1.2-2.3-2.5-2.8
			c-1.1-0.4-2.2,0-2.5,1c-1.2,3.7-4.9,5.9-6,9.6h-18c0.1-1.4,1.3-1.6,2.3-2.3c5.2-3.8,9.4-8.4,11.3-14.8c0.8-2.5,0.5-4.5-1.5-6.3
			c-5.1-4.7-8.6-10.6-12-16.5c-3-5.2-5.8-10.5-9.4-17c-2.7,13.9-4.3,26.4-4.6,39c-0.1,4.6,1.1,8.8,4,12.6c1.5,1.9,4.3,2.7,5,5.4
			H72.3z"/>
		<path id="Fill-4" class="st0" d="M108.3,91c0,0.8,0.1,1.7,0,2.5c-0.5,4.8-3.9,9.1-7.4,9.5c-4,0.4-8-3.1-9.1-8.2
			c-0.9-4.2,0-8.3,2.3-11.8c3.7-5.4,9.4-4.8,12.6,1C108,86.1,108.5,88.5,108.3,91"/>
		<path id="Fill-6" class="st0" d="M38.2,89.5c0.3,3.1-0.7,5.9-2.1,8.6c-0.8,1.5-1.9,2.8-3.8,2.8c-2,0.1-2.8-1.4-3.6-2.9
			c-2.6-5-1.8-10,0.5-14.8c0.8-1.7,2-3.1,4.2-3c2,0.1,2.7,1.7,3.5,3.1C38,85.2,38.5,87.3,38.2,89.5"/>
		<path id="Fill-8" class="st0" d="M57.9,124.3c6.3,1.5,12.4,2.6,18.7,0.9c2.4-0.6,2.9,1.2,2.5,3.1c-0.6,3.4-2.7,5.7-6.1,6.5
			C67.6,136,59.5,130.5,57.9,124.3"/>
		<path id="Fill-10" class="st0" d="M216.5,156c-0.8,0-1.7-0.1-2.5,0c-7,1.2-12-1.4-15.8-7.5c-2.6-4.2-6-7.9-9.5-11.5
			c-3.9-4.1-6-8.1-4.6-14.2c1.8-7.9,2.4-16.1,2.2-24.2c-0.1-3,1-4.4,4.2-4.8c4.8-0.6,9.5-1,14.4-0.5c8.4,0.8,14.9,4.5,20.4,11
			c5.8,6.9,11.6,13.7,16,21.6c1.5,2.7,1.9,5.3,1.3,8.5c-1.1,5.7-2.5,11.4-4.2,16.9c-0.6,2-1.5,3.7-4,3.7
			C228.4,155.1,222.5,156.8,216.5,156"/>
	</g>
</g>
</svg>
