<?xml version="1.0" encoding="utf-8"?>
<!-- Generator: Adobe Illustrator 24.1.0, SVG Export Plug-In . SVG Version: 6.00 Build 0)  -->
<svg version="1.1" id="Layer_1" xmlns="http://www.w3.org/2000/svg" xmlns:xlink="http://www.w3.org/1999/xlink" x="0px" y="0px"
	 viewBox="0 0 300 288" style="enable-background:new 0 0 300 288;" xml:space="preserve">
<style type="text/css">
	.st0{fill:#ABE0F5;}
	.st1{fill:none;}
</style>
<g>
	<g id="XMLID_4_">
		<g>
			<path class="st0" d="M137.7,57.6c-1.6-10.3-3.8-20.5-6.9-30.5c-0.4-1.3-0.7-2.7-1-4.1c-0.1-0.3-0.1-0.5-0.1-0.8
				c0-0.7,0.3-1.3,1-1.6c0.7-0.2,1.2,0.1,1.7,0.7c1.5,1.9,2.5,4.2,3.3,6.4c2.2,6.4,3.5,12.9,4.2,19.6c0.2,2.5,0.4,5.1,0.6,8.1
				c-0.1,2-0.3,4.5-0.5,6.9c0,0.3-0.2,0.7-0.4,0.9c-0.4,0.3-0.9-0.1-1-0.7C138.2,60.8,137.9,59.2,137.7,57.6z"/>
			<path class="st0" d="M90.3,170C90.3,170,90.3,170,90.3,170c-0.1,1.2-0.2,2.4-0.4,3.6c-0.7,3.4-2.8,4.7-6.3,4
				c-2.9-0.6-4.9-2.6-6.4-5c-0.4-0.6-0.7-1.4-0.9-2.1c-0.1-0.4-0.2-0.8-0.1-1.1c0.2-0.5,0.5-1,0.9-1.2c0.4-0.1,1,0.1,1.4,0.4
				c0.7,0.6,1.1,1.4,1.8,2.1c0.8,0.8,1.6,1.6,2.4,2.4c0.2,0.2,0.5,0.3,0.8,0.5c2.4,1,3.2,0.5,3.6-1.6c0.3-1.5,0.3-3,0.4-4.5
				c0-0.6-0.1-1.2,0.1-1.7c0.1-0.4,0.5-0.9,0.8-1c0.3,0,0.9,0.3,1.1,0.7c0.4,0.8,0.6,1.8,0.8,2.7C90.3,168.7,90.2,169.4,90.3,170z"
				/>
		</g>
	</g>
	<g>
		<path class="st0" d="M125.2,126c-0.4-3.6-1.4-7-3.2-10c-1.4-2.3-3.2-4.4-5.7-5.5c-3-1.3-7-1-9.5,2.1c-1.7,2-2.7,4.4-3.3,6.9
			c-0.8,2.7-0.9,5.6-0.7,8.4c0.2,2.8,0.6,5.6,1.5,8.2c1.3,3.5,3.2,6.5,6.4,8.7c4.2,2.9,10.3,2.2,12.9-3.5c1.5-3.4,2-6.9,2.1-10.6
			C125.5,129.2,125.4,127.6,125.2,126z M111.7,126.9c-0.8,1.4-2.3,2.1-3.9,1.7c-1.4-0.3-2.2-1.4-2.3-2.8c0-0.9-0.1-1.8-0.1-2.6
			c0-2,0.7-3.7,2.2-5.1c1.8-1.7,4.5-0.8,5,1.6c0.2,0.8,0.2,1.6,0.3,2.1C112.8,123.8,112.6,125.4,111.7,126.9z"/>
	</g>
	<g>
		<path class="st0" d="M56.8,143.8c-0.1-1.3-0.2-2.7-0.3-4c-0.4-5.4-1.9-10.6-4.3-15.4c-0.9-1.8-1.8-3.5-3.3-4.9
			c-1.2-1.1-2.6-1.8-4.4-1.6c-2.2,0.3-3.5,1.6-4.3,3.5c-1.3,3.1-1.6,6.4-1.4,9.6c0.1,2.3,0.3,4.7,0.7,7c0.5,3.2,1,6.3,2.5,9.2
			c1.1,2.3,2.5,4.3,4.7,5.7c3.8,2.4,8.2,0.9,9.4-3.5c0.5-1.8,0.6-3.8,0.8-5.7C56.9,143.8,56.9,143.8,56.8,143.8z M45.8,133
			c-0.1,1-0.6,1.7-1.6,2c-1,0.3-1.9-0.1-2.5-0.9c-0.4-0.5-0.7-1.1-0.8-1.7c-0.2-1.1-0.3-2.1-0.4-3.4c0.2-1,0.3-2.1,0.5-3.1
			c0.2-0.8,0.6-1.5,1.5-1.7c1-0.2,1.7,0.1,2.4,0.9c0.8,0.9,1.1,2.1,1.1,3.2C46,129.8,45.9,131.5,45.8,133z"/>
	</g>
	<g>
		<path class="st1" d="M47.7,37.8c-3.3,0.4-6.5,0.6-9.3-1.8c0.1,0.4,0.1,0.6,0.2,0.8c2.3,6.5,4.6,13.1,6.9,19.6
			c0.2,0.7,0.8,1.3,1.1,1.9c0.7,1.4,2,1.9,3.4,2.2c4.5,1.1,8.9,0.7,13.2-0.6c7.1-2.1,12.5-6.5,16.1-12.9c1.2-2,2-4.2,1.8-6.6
			c0-0.6-0.2-1.2-0.6-1.7c-3.7-4.8-7.8-9.4-12.2-13.6c-0.8-0.7-1.6-1.4-2.4-2.2c-0.1,0.4-0.2,0.6-0.3,0.9c-0.8,1.6-1.4,3.3-2.4,4.8
			C59.5,33.9,54.3,36.9,47.7,37.8z"/>
		<path class="st1" d="M62.5,62.9c-3.3,0.7-6.5,0.9-9.8,0.3c-1.8-0.3-3.4-0.9-5.1-1.9c0.2,0.5,0.3,0.7,0.4,1c1.6,3.7,3.3,7.3,4.9,11
			c0.8,1.7,1.6,3.3,2.4,4.9c0.1,0.3,0.4,0.6,0.6,0.7c1.3,0.5,2.6,1.1,4,1.4c3,0.7,6.1,0.2,9.1-0.4c3.9-0.8,7.4-2.4,10.6-4.6
			c2.2-1.5,4.2-3.4,6.3-5.1c3.7-3,5.1-6.9,5-11.5c-0.1-2.8-0.9-5.5-1.8-8.1c-0.2-0.5-0.6-1-0.9-1.5c-0.8-1.2-1.7-2.4-2.5-3.6
			c-0.9-1.3-1.9-2.6-2.8-3.9c-0.3,1.5-0.6,3.1-1,4.5c-1.3,3.7-3.5,6.9-6.3,9.7C71.9,59.3,67.6,61.8,62.5,62.9z"/>
		<path class="st1" d="M36.3,28.5c0.4,1.5,0.5,3,1.6,4.3c1.8,2,4,2.8,6.7,2.7c4.6-0.3,8.9-1.6,12.7-4.3c3.2-2.2,5.7-5,7.2-8.7
			c0.2-0.4,0.3-0.8-0.2-1.2C57.7,15.7,50.7,10.5,43,6.3c-0.9-0.5-2-0.9-3-1c-2-0.3-3.9,0.6-4.6,2.2C34.5,9.1,34,11,34,12.7
			c0.1,1.2,0.1,2.2,0.2,3.2C34.5,20.2,35.3,24.4,36.3,28.5z"/>
		<path class="st1" d="M43.1,72.3c-0.3-0.1-0.5-0.2-0.7-0.3c-6.7-3.1-13.4-6.2-20.1-9.2c-2.8-1.3-5.6-2.5-8.4-3.8
			c-0.3-0.1-0.6-0.4-0.8-0.6c0.3-0.3,0.5-0.7,0.8-0.9c0.3-0.2,0.7-0.3,1.1-0.3c1,0,1.9,0.1,2.9,0.3c6,1.3,11.7,3.6,17.2,6.3
			c2.4,1.2,4.8,2.5,7.2,3.8c0-0.1,0-0.1,0-0.2c-1.9-4.9-3.8-9.7-5.7-14.6c-0.2-0.5-0.5-0.6-0.9-0.6c-1.8-0.4-3.6-0.8-5.4-1.1
			c-4.6-0.9-9.2-2-13.9-2.2c-2.6-0.1-5.1-0.1-7.6,0.7c-1.9,0.6-2.6,1.5-2.5,3.3c0.1,2.3,0.6,4.5,1.3,6.7c3,9.8,7.6,18.7,14.2,26.5
			c1.7,2,3.4,4.1,5.1,6.3C31.1,84.7,36.6,78.2,43.1,72.3z"/>
		<path class="st1" d="M147.2,15.3c3.8,4.9,7,10.2,9.7,15.8c2.6,5.4,4.7,11.1,5.9,17c0.9,4.6,1.5,9.2,1.3,13.9
			c0,0.5,0.2,0.8,0.6,1.2c4.1,3.1,7.7,6.6,11.1,10.4c4.2,4.8,7.6,10.2,11,15.6c4,6.5,6.9,13.5,8.7,21c1,4,1.6,8.1,1.9,12.2
			c0.3,3.3,0.2,6.5,0.2,9.8c0.1,4.3-0.5,8.5-1.3,12.7c-0.2,1.3-0.5,2.7-0.8,4c0.1,0,0.2,0,0.3,0c4.9-1,9.7-1.1,14.6-0.2
			c0.2,0,0.5,0.1,0.7,0c1.6-0.3,3.3-0.5,4.9-1.1c6.2-2.3,10.9-6.4,14-12.2c1.8-3.3,2.8-6.9,3.2-10.7c0.1-1.3,0.2-2.6,0.3-3.9
			c-0.3,0.1-0.5,0.1-0.6,0.1c-1.8,0.5-3.7,0.8-5.6,0.7c-1.9-0.1-3.7-0.1-5.6-0.3c-3.6-0.4-7-1.4-10.3-3.1c-3.5-1.7-6.4-4.2-9.2-6.8
			c-0.5-0.5-1-1.1-1.5-1.6c-0.6-0.8-0.3-1.6,0.6-1.8c0.9-0.2,1.7-0.4,2.6-0.4c1.9-0.2,3.8-0.4,5.7-0.5c4.5-0.4,8.5-1.9,12.2-4.4
			c2.2-1.5,4.4-3,6.6-4.5c4.3-3.1,8.7-6,13.8-7.8c0.1,0,0.1-0.1,0.3-0.3c-1.1-1.8-2.1-3.7-3.3-5.5c-1.8-2.7-3.6-5.3-6-7.3
			c-3-2.5-6.2-4.9-9.3-7.3c-5.3-3.8-10.7-7.4-16.5-10.4c-7.3-3.8-14.7-7.2-22.7-9.2c-0.8-0.2-1-0.8-0.4-1.4c0.6-0.5,1.5-1.1,2.2-1.1
			c1.7-0.1,3.4-0.3,5.1,0.1c3.1,0.7,5.2-0.6,7.1-2.8c0.1-0.1,0.1-0.2,0.2-0.2c1.7-2.2,2.7-4.8,3.4-7.5c0.7-3,1.1-6,1.1-9
			c0.1-2.3-0.1-4.6-0.2-7c-1.1-0.2-2.1-0.3-3.1-0.5c-5.3-0.9-10.7-1.7-16-2.8c-11.2-2.2-22.3-5.1-33.7-6.6c-2.3-0.3-4.6-0.5-6.9-0.8
			c0,0.1,0,0.1-0.1,0.2c0.2,0.2,0.3,0.4,0.5,0.5C145,12.8,146.1,14,147.2,15.3z"/>
		<path class="st1" d="M224.9,147.9c-2,1.4-4.2,2.5-6.4,3.2c2.6,1.6,5.2,3.2,7.6,4.9c3.5,2.5,6.5,5.6,9,9.1
			c2.9,3.9,5.1,8.2,6.8,12.7c1.5,4.1,2.9,8.2,3.6,12.6c0,0.2,0.1,0.4,0.2,0.8c1.9-3,4.6-4.4,7.8-4.9c3.7-0.5,7.5-0.5,11.3,0
			c4,0.6,8,1.2,12,1.8c0.2,0,0.6,0,0.7-0.1c1.9-1.6,4-3.1,5.7-4.8c4.3-4.5,7.6-9.7,10-15.5c0.7-1.7,1.2-3.3,1.9-5
			c-0.1,0-0.1-0.1-0.2-0.1c-1.9,0.9-3.7,1.8-5.6,2.7c-2,0.9-4,2-6,2.7c-1.8,0.7-3.6,1.3-5.6,1.1c-0.5,0-1-0.3-1.5-0.5
			c0.3-0.4,0.6-1,1-1.3c1.3-0.8,2.6-1.6,4-2.2c4.4-2.2,7.9-5.3,9.4-10.2c0.4-1.3,0.7-2.5,1.1-3.8c-1,0.2-1.9,0.3-2.8,0.5
			c-4.9,0.7-9.7,0.5-14.5-0.5c-3.7-0.7-7.2-2-10.6-3.4c-4.7-2-9.4-4-14.1-6c-3.7-1.5-7.4-2.2-11.4-1.3c-3.9,0.9-7.3,2.7-10.4,5.2
			C226.8,146.4,225.9,147.2,224.9,147.9z"/>
		<path class="st1" d="M99.4,46.4c2.4-0.4,4.8-0.7,7.2-1.1c-0.1-10.7,4.2-20,9.1-29.3c-3.7,2-6.6,4.7-9.3,7.6
			c-2.5,2.8-4.5,5.8-6.5,9c-2.8,4.5-5.5,9.1-6.8,14.2c-0.1,0.3,0,0.6-0.1,0.8c0.3,0,0.6,0,0.8-0.1C95.8,47.2,97.6,46.7,99.4,46.4z"
			/>
		<path class="st1" d="M290.2,216.3c-0.1-3-0.2-6.1-0.5-9.1c-0.4-3.9-1.2-7.8-2.3-11.5c-0.1-0.5-0.4-0.6-0.9-0.7
			c-1,0-2.1-0.1-3.1-0.3c-1-0.1-2-0.2-3-0.4c1.3,4.2,1.9,8.4,2.2,12.6c0.3,4.3,0.4,8.5,0.5,13c2.3,0,4.7,0,7.2,0c0-0.2,0-0.5,0-0.8
			C290.2,218.2,290.2,217.3,290.2,216.3z"/>
		<path class="st1" d="M277.6,194.3c-0.1-0.2-0.4-0.5-0.6-0.5c-3.6-0.5-7.2-0.9-10.7-1.4c-4-0.6-7.9-0.9-11.9-0.5
			c-2.4,0.2-4.6,1-6.1,3c-0.7,0.9-1.5,1.8-2.2,2.8c-0.6,0.8-1.3,1.3-2.2,1.6c-1,0.3-2.2-0.5-2.2-1.6c-0.1-2.2-0.2-4.4-0.4-6.6
			c-0.6-5-2.2-9.8-4.6-14.3c-3.2-6-7.3-11.4-12.5-15.8c-2.9-2.5-6.2-4.5-9.8-5.9c-2.9-1.1-5.9-1.9-9-2.1c-3.8-0.2-7.4,0.1-11,1.1
			c-0.2,0-0.3,0.1-0.4,0.3c-0.7,0.9-1.5,1.8-2.1,2.7c-2.1,3.1-4.2,6.1-6.3,9.2c-0.3,0.5-0.7,1.1-1.3,0.7c-0.7-0.4-0.1-0.9,0-1.4
			c2.8-6.7,4.8-13.7,6.1-20.9c0.8-4.4,1.3-8.9,1.2-13.4c0-3.5-0.4-7-0.7-10.4c-0.4-4.1-1.5-8-2.7-11.8c-2-6.1-4.8-11.9-8.2-17.3
			c-4.3-6.9-9.3-13.2-15.9-18c-0.1-0.1-0.3-0.2-0.3-0.2c-0.6,0.8-1.2,1.6-1.8,2.3c-0.1,0.2-0.4,0.3-0.6,0.2
			c-0.6-0.1-1.4-1.2-1.4-1.7c0-5.4-0.7-10.7-1.6-15.9c-0.9-4.9-2-9.7-3.6-14.4c-3.3-9.6-8.1-18.5-14-26.8c-2.4-3.3-4.9-6.5-8-9.2
			c-0.6-0.5-1.2-1-1.9-1.3c-0.6-0.2-1.5-0.3-1.8,0c-1,0.9-2,1.9-2.7,3c-1.9,3.1-3.6,6.3-5.3,9.5c-2.8,5.2-5.3,10.6-6.8,16.3
			c-1.2,4.7-2.1,9.4-3.2,14.2c-0.3,1.1-1.5,1.7-2.5,1c-0.3-0.2-0.7-0.3-1-0.3c-3.1,0.4-6.2,0.8-9.3,1.3c-1,0.1-1.9,0.4-2.9,0.6
			c0.1,0.4,0.2,0.6,0.2,0.8c1.4,5.2,1,10.2-1.2,15.1c-0.6,1.3-1.7,2.4-2.5,3.6c-1.9,3.1-4.7,5.4-7.2,7.9c-0.6,0.6-1.2,1.1-1.9,1.6
			c-4,2.8-8.4,4.8-13.2,5.6c-2.6,0.4-5.3,0.8-7.9,0.3c-2.2-0.4-4.4-0.8-6.4-1.6c-2.9-1.1-5.3-2.9-6.5-5.9c-0.3-0.7-0.8-1.4-1.2-2.1
			c-0.1,0.1-0.2,0.2-0.3,0.2c-0.6,0.7-1.2,1.3-1.9,2c-5.4,6-10.1,12.6-13.6,19.9c-4.3,8.8-6.9,18-7.3,27.8c-0.2,6,0,12,1.3,17.9
			c0.2,1.1,0.1,2.3-0.5,3.3c-1.7,3.1-3.4,6.1-5.1,9.2c-1.2,2.3-2.2,4.7-2.4,7.2c-0.2,2.2-0.4,4.5-0.5,6.7c0,1.7,0,3.5,0.3,5.1
			c0.4,2,1.1,4,2,5.8c2.6,5.4,6.7,9.4,11.7,12.5c4.5,2.7,9.4,4.7,14.5,5.9c1,0.2,1.9,0.6,2.8,0.8c2.5,0.6,4.9,1.3,7.4,1.7
			c4.8,0.8,9.6,0.9,14.4,0.9c4.5,0,9.1-0.1,13.6-0.6c1.4-0.1,2.8-0.2,4.2-0.2c0.2,0,0.6,0.1,0.6,0.3c0.3,0.5,0.5,1.1,0.7,1.6
			c-3.9,2.3-8.2,3.4-12.6,4.4c0.1,0.1,0.1,0.2,0.2,0.2c4.3,2.6,7.7,6.2,10.4,10.3c2.3,3.4,4.4,7,6.4,10.6c2.2,4.2,4.1,8.5,6.1,12.8
			c1.2,2.7,2.2,5.4,3.3,8.1c0.4,0.9,0,1.9-0.9,2.4c-1.6,1-3.2,2-4.9,3c0.8,0.6,1.5,1.1,2.2,1.6c1.2,0.7,2.3,1.7,3.5,2.1
			c4.7,1.6,9.4,3.2,14.2,4.6c5.5,1.7,11.2,2.9,17,3.7c4,0.5,7.9,1,11.9,1.2c4.6,0.2,9.3,0.1,13.9-0.3c3.5-0.3,7-1,10.4-1.7
			c8.1-1.6,15.9-4.3,23.4-8c8-3.9,15.6-8.7,22.4-14.5c1.1-0.9,2.2-1.9,3.4-2.9c-0.3-0.1-0.5-0.2-0.6-0.3c-4.7-2-8.7-4.9-11.6-9.2
			c-0.7-1-1.1-2.1-1.5-3.2c-0.2-0.5,0-1.1,0.5-1.5c0.5-0.4,1-0.2,1.5,0.2c0.7,0.6,1.3,1.2,2,1.7c2,1.5,3.9,3.1,6.1,4.3
			c3.9,2.4,8.3,3.5,12.9,4c3,0.3,6,0.1,8.7-1.4c2.9-1.6,5.3-3.6,7.7-5.9c4.7-4.4,7.3-9.8,7.8-16.2c0.1-1,0.1-2,0.2-3.1
			c2.5,3,2.4,6.5,1.8,10.2c8.3-1.5,16.6-2.6,24.9-3c0-0.3,0-0.5,0-0.7c-0.1-6-0.3-12.1-1.3-18.1
			C278.8,198.9,278.2,196.6,277.6,194.3z"/>
		<path class="st1" d="M90.3,234.7c-2.3-4.4-4.7-8.7-7.7-12.7c-2.1-2.8-4.4-5.5-7.3-7.6c-1.8-1.4-3.8-2.5-6.2-2.7
			c-2-0.1-4-0.1-6-0.1c-0.7,0-1.2,0.2-1.7,0.6c-5.5,4.1-9.1,9.3-9.6,16.3c-0.3,3.6-0.3,7.2,0.6,10.7c1.5,5.8,4.1,11.1,8,15.7
			c1.2,1.5,2.6,2.8,3.9,4.1c8.8-7.6,18.6-13.5,28.2-19.7C91.9,237.7,91.1,236.2,90.3,234.7z"/>
		<path class="st1" d="M238,271.6c2.7,1,5.5,2.1,8.4,3.1c0.1-0.2,0.3-0.4,0.4-0.7c1-2.1,2-4.1,2.8-6.2c1.7-4.2,3-8.5,2.6-13.2
			c0-0.5-0.2-0.8-0.7-1.1c-1.8-1-3.7-2-5.5-3c-0.7-0.4-1.5-0.7-2.4-1.2c0.4,4-0.4,7.7-1.6,11.3C240.9,264.4,239.4,267.9,238,271.6z"
			/>
		<path class="st1" d="M96.5,247.1c-0.9-1.8-1.8-3.6-2.6-5.4c-8.9,6.7-18.5,12.4-28,18.2c0.2,0.2,0.4,0.4,0.7,0.5
			c2.3,1.8,4.9,3.1,7.5,4.4c0.5,0.2,0.8,0.2,1.2-0.1c2.5-1.6,5.1-3.2,7.5-4.9c4.7-3.3,9.3-6.7,14-10.1c0.6-0.4,0.8-0.9,0.4-1.6
			C96.9,248,96.7,247.5,96.5,247.1z"/>
		<path class="st0" d="M285.4,189.5c9.4-8.6,15.3-21.6,14.5-34.5c-2.1,1.3-4,2.4-6.1,3.6c1.4-3.6,2.4-7.1,2.4-10.7
			c-26.1,3.1-41.8-18.7-61.6-11.7c1.7-2.5,4.7-20.6,0.7-20.6c-8.8,1.2-17.6,0.3-25.4-3.9c0.1-0.1,0.1-0.2,0.2-0.3
			c14.5,0,24.5-12.9,35.8-20.4c-3.6-19.2-28.3-35.2-45.8-41.3c8.1-7.7,9.6-23.2,5.9-33.1c-18.6-5.5-37.6-10-56.8-12.5
			C143.9,3,137.8,5,133,2.4c-5.4-4.4-7.1,1.2-10.9,3.8c-16.7,4.5-27,19.7-32.9,35.1C79.2,25.8,65.3,13.5,49.7,4
			c-27-15.2-19.9,27.7-15.5,41.6c-11.6-2.6-38-8.2-33.7,11.9c3.1,15.2,11.6,28.9,23.1,39.1c0.4,0.4,0.5,0.7,0.2,1.2
			c-5.4,10.9-7.9,23.3-7,35.4c-0.5,4.7,2.1,9.5,1.1,13.9c-5.1,7.2-8.1,15.8-8.8,24.6c-2.3,25,24.9,39.4,46.8,39.9
			c-22.4,18.9-5.3,51.1,17.9,60.2c3.1,1.6,14.6-9,18.8-10.8c15.9,13.9,38.5,18.8,59.1,19.2c6.7,0,13.2-0.4,19.7-1.9
			c1.5,0.1,2.4,1.7,3.7,2.3c9.5,5.8,22.8,5.4,31.1-2.4c5.4-4,2.8-7.5,10-5.5c6.7,1.5,13.6,2.6,20.2,4.3c4.1,1.7,8.5,3.8,12.9,4.5
			c7.7-8,10.5-20.1,8.4-30.9c-0.3-1.5-1.4-2.1-2.8-2.5c-4.2-2-8-4.4-12.4-6c5.7-2.9,8.3-8.9,11.9-13.5c11.4-0.5,22.7-2,34.2-2.2
			c2.4-0.6,6.7,1,8.1-1.4C296.4,215.4,299.1,189.7,285.4,189.5z M238.2,140.4c4-0.9,7.7-0.2,11.4,1.3c4.7,2,9.4,4,14.1,6
			c3.4,1.4,6.9,2.7,10.6,3.4c4.8,1,9.6,1.2,14.5,0.5c0.9-0.1,1.7-0.3,2.8-0.5c-0.4,1.3-0.7,2.6-1.1,3.8c-1.5,4.9-4.9,8-9.4,10.2
			c-1.4,0.7-2.7,1.4-4,2.2c-0.4,0.3-0.7,0.8-1,1.3c0.5,0.2,1,0.4,1.5,0.5c2,0.1,3.8-0.5,5.6-1.1c2.1-0.8,4-1.8,6-2.7
			c1.9-0.9,3.8-1.8,5.6-2.7c0.1,0,0.1,0.1,0.2,0.1c-0.6,1.7-1.2,3.4-1.9,5c-2.4,5.8-5.6,11-10,15.5c-1.7,1.8-3.8,3.3-5.7,4.8
			c-0.2,0.1-0.5,0.2-0.7,0.1c-4-0.6-8-1.2-12-1.8c-3.8-0.5-7.5-0.5-11.3,0c-3.2,0.4-6,1.9-7.8,4.9c-0.1-0.4-0.2-0.6-0.2-0.8
			c-0.6-4.3-2-8.5-3.6-12.6c-1.7-4.6-4-8.8-6.8-12.7c-2.6-3.5-5.5-6.6-9-9.1c-2.4-1.8-5.1-3.3-7.6-4.9c2.2-0.7,4.4-1.8,6.4-3.2
			c1-0.7,2-1.5,2.9-2.3C230.9,143.1,234.3,141.3,238.2,140.4z M143.5,10.7c2.3,0.3,4.6,0.5,6.9,0.8c11.4,1.6,22.5,4.4,33.7,6.6
			c5.3,1.1,10.7,1.9,16,2.8c1,0.2,1.9,0.3,3.1,0.5c0.1,2.3,0.2,4.6,0.2,7c-0.1,3-0.4,6-1.1,9c-0.7,2.7-1.6,5.3-3.4,7.5
			c-0.1,0.1-0.1,0.2-0.2,0.2c-1.9,2.2-4,3.5-7.1,2.8c-1.6-0.4-3.4-0.2-5.1-0.1c-0.8,0.1-1.6,0.6-2.2,1.1c-0.6,0.5-0.4,1.2,0.4,1.4
			c8,2,15.4,5.5,22.7,9.2c5.8,3,11.2,6.5,16.5,10.4c3.2,2.3,6.3,4.7,9.3,7.3c2.5,2.1,4.3,4.7,6,7.3c1.2,1.8,2.2,3.7,3.3,5.5
			c-0.2,0.2-0.3,0.3-0.3,0.3c-5,1.8-9.5,4.7-13.8,7.8c-2.1,1.6-4.4,3-6.6,4.5c-3.7,2.5-7.8,4-12.2,4.4c-1.9,0.2-3.8,0.3-5.7,0.5
			c-0.9,0.1-1.8,0.2-2.6,0.4c-0.9,0.2-1.2,1-0.6,1.8c0.4,0.6,0.9,1.2,1.5,1.6c2.8,2.6,5.8,5.1,9.2,6.8c3.2,1.6,6.6,2.7,10.3,3.1
			c1.9,0.2,3.7,0.2,5.6,0.3c1.9,0.1,3.8-0.1,5.6-0.7c0.2,0,0.3-0.1,0.6-0.1c-0.1,1.4-0.2,2.7-0.3,3.9c-0.4,3.8-1.4,7.4-3.2,10.7
			c-3.1,5.8-7.8,9.9-14,12.2c-1.6,0.6-3.3,0.7-4.9,1.1c-0.2,0-0.4,0-0.7,0c-4.9-0.9-9.7-0.8-14.6,0.2c-0.1,0-0.1,0-0.3,0
			c0.3-1.4,0.5-2.7,0.8-4c0.7-4.2,1.3-8.4,1.3-12.7c0-3.3,0.1-6.6-0.2-9.8c-0.3-4.1-1-8.2-1.9-12.2c-1.8-7.5-4.6-14.5-8.7-21
			c-3.3-5.4-6.7-10.8-11-15.6c-3.4-3.8-7-7.4-11.1-10.4c-0.4-0.3-0.6-0.6-0.6-1.2c0.2-4.7-0.4-9.3-1.3-13.9
			c-1.2-5.9-3.2-11.6-5.9-17c-2.7-5.6-5.8-10.9-9.7-15.8c-1-1.3-2.2-2.5-3.3-3.8c-0.2-0.2-0.3-0.4-0.5-0.5
			C143.4,10.9,143.4,10.8,143.5,10.7z M93.2,46.9c1.3-5.2,4-9.8,6.8-14.2c2-3.1,4-6.2,6.5-9c2.7-3,5.6-5.7,9.3-7.6
			c-4.8,9.3-9.2,18.6-9.1,29.3c-2.4,0.4-4.9,0.7-7.2,1.1c-1.8,0.3-3.6,0.8-5.5,1.2c-0.3,0.1-0.6,0.1-0.8,0.1
			C93.1,47.4,93.1,47.1,93.2,46.9z M82.9,41.6c0.9,1.3,1.9,2.6,2.8,3.9c0.9,1.2,1.7,2.4,2.5,3.6c0.3,0.5,0.7,1,0.9,1.5
			c0.9,2.6,1.8,5.3,1.8,8.1c0.1,4.5-1.3,8.5-5,11.5c-2.1,1.7-4.1,3.6-6.3,5.1c-3.2,2.2-6.8,3.9-10.6,4.6c-3,0.6-6,1.1-9.1,0.4
			c-1.4-0.3-2.7-0.9-4-1.4c-0.3-0.1-0.5-0.4-0.6-0.7c-0.8-1.6-1.7-3.2-2.4-4.9c-1.7-3.6-3.3-7.3-4.9-11c-0.1-0.2-0.2-0.5-0.4-1
			c1.7,1,3.4,1.6,5.1,1.9c3.3,0.6,6.6,0.3,9.8-0.3c5.1-1,9.4-3.5,13-7.1c2.8-2.8,5-5.9,6.3-9.7C82.4,44.6,82.6,43.1,82.9,41.6z
			 M66.1,22.9c0.8,0.8,1.6,1.5,2.4,2.2c4.4,4.2,8.5,8.8,12.2,13.6c0.3,0.4,0.5,1.1,0.6,1.7c0.1,2.4-0.7,4.6-1.8,6.6
			c-3.7,6.4-9.1,10.8-16.1,12.9c-4.3,1.3-8.7,1.7-13.2,0.6c-1.4-0.3-2.7-0.8-3.4-2.2c-0.4-0.7-0.9-1.2-1.1-1.9
			c-2.3-6.5-4.6-13.1-6.9-19.6c-0.1-0.2-0.1-0.5-0.2-0.8c2.9,2.4,6.1,2.2,9.3,1.8c6.5-0.9,11.8-3.9,15.6-9.2c1-1.4,1.6-3.2,2.4-4.8
			C65.9,23.5,65.9,23.2,66.1,22.9z M34,12.7c0-1.8,0.6-3.6,1.3-5.4C36,5.8,38,4.9,39.9,5.2c1,0.2,2.1,0.5,3,1
			c7.7,4.2,14.7,9.4,21.4,15.1c0.5,0.4,0.3,0.7,0.2,1.2c-1.5,3.7-4,6.4-7.2,8.7c-3.8,2.7-8.1,4-12.7,4.3c-2.6,0.2-4.8-0.6-6.7-2.7
			c-1.2-1.3-1.3-2.8-1.6-4.3c-1-4.1-1.8-8.3-2.2-12.6C34.1,15,34,13.9,34,12.7z M21.6,86c-6.7-7.8-11.3-16.7-14.2-26.5
			c-0.7-2.2-1.2-4.4-1.3-6.7c-0.1-1.8,0.6-2.7,2.5-3.3c2.5-0.8,5-0.8,7.6-0.7c4.7,0.2,9.3,1.3,13.9,2.2c1.8,0.4,3.6,0.8,5.4,1.1
			c0.4,0.1,0.7,0.2,0.9,0.6c1.9,4.9,3.8,9.7,5.7,14.6c0,0,0,0.1,0,0.2c-2.4-1.3-4.8-2.6-7.2-3.8c-5.5-2.7-11.2-5.1-17.2-6.3
			c-0.9-0.2-1.9-0.2-2.9-0.3c-0.4,0-0.8,0.1-1.1,0.3c-0.3,0.2-0.6,0.6-0.8,0.9c0.3,0.2,0.5,0.5,0.8,0.6c2.8,1.3,5.6,2.5,8.4,3.8
			c6.7,3.1,13.4,6.1,20.1,9.2c0.2,0.1,0.4,0.2,0.7,0.3c-6.4,5.9-12,12.4-16.4,19.9C25,90.1,23.3,88,21.6,86z M60.6,254.9
			c-3.9-4.6-6.5-9.9-8-15.7c-0.9-3.5-0.9-7.1-0.6-10.7c0.5-7,4.1-12.2,9.6-16.3c0.5-0.4,1-0.6,1.7-0.6c2,0.1,4,0,6,0.1
			c2.3,0.1,4.3,1.3,6.2,2.7c2.9,2.1,5.1,4.8,7.3,7.6c3,4,5.4,8.3,7.7,12.7c0.8,1.5,1.6,3.1,2.4,4.6c-9.6,6.1-19.4,12.1-28.2,19.7
			C63.2,257.6,61.8,256.3,60.6,254.9z M96.8,249.9c-4.7,3.4-9.3,6.8-14,10.1c-2.4,1.7-5,3.2-7.5,4.9c-0.4,0.3-0.7,0.3-1.2,0.1
			c-2.6-1.3-5.2-2.6-7.5-4.4c-0.3-0.2-0.5-0.4-0.7-0.5c9.5-5.8,19.1-11.5,28-18.2c0.8,1.7,1.7,3.5,2.6,5.4c0.2,0.4,0.3,0.9,0.6,1.3
			C97.6,249,97.4,249.5,96.8,249.9z M235.3,269.6c-0.1,0.2-0.2,0.4-0.2,0.5c-3.7-0.8-7.2-1.6-10.8-2.2c-3.6-0.6-7.2-0.8-10.8-0.2
			c0.4-2.2,0.4-3.2-0.2-4.1c-0.7,0.9-1.5,1.8-2.2,2.7c-2.2,3.1-4.7,5.9-7.9,8c-4.8,3.1-10,4.7-15.8,4.2c-2.8-0.2-5.5-0.7-8.2-1.6
			c-0.3-0.1-0.6-0.2-1-0.4c1.3-0.4,2.4-0.8,3.6-1.2c7.2-2.5,14.1-5.6,20.6-9.5c8.9-5.3,17-11.6,23.9-19.4c0.8-0.9,1.6-1.2,2.7-1.1
			c1.6,0.1,3.2-0.1,4.8-0.1c0.4,0,0.8,0,1.1,0.1c2,0.9,3.9,1.8,5.9,2.8c0.2,0.1,0.3,0.5,0.3,0.8c0,3.6-0.7,7-1.8,10.4
			C238,262.8,236.6,266.2,235.3,269.6z M243.7,249.5c0.9,0.4,1.7,0.8,2.4,1.2c1.8,1,3.7,2,5.5,3c0.5,0.2,0.6,0.6,0.7,1.1
			c0.3,4.6-0.9,9-2.6,13.2c-0.9,2.1-1.9,4.1-2.8,6.2c-0.1,0.2-0.2,0.4-0.4,0.7c-2.9-1.1-5.7-2.1-8.4-3.1c1.4-3.7,2.8-7.2,4-10.8
			C243.3,257.2,244.2,253.6,243.7,249.5z M280.4,220c-8.4,0.5-16.6,1.5-24.9,3c0.6-3.7,0.7-7.2-1.8-10.2c-0.1,1-0.1,2-0.2,3.1
			c-0.5,6.4-3.1,11.8-7.8,16.2c-2.3,2.2-4.8,4.3-7.7,5.9c-2.7,1.5-5.7,1.7-8.7,1.4c-4.6-0.4-8.9-1.6-12.9-4
			c-2.1-1.3-4.1-2.9-6.1-4.3c-0.7-0.5-1.4-1.1-2-1.7c-0.5-0.4-1-0.5-1.5-0.2c-0.5,0.4-0.7,1-0.5,1.5c0.4,1.1,0.9,2.3,1.5,3.2
			c2.8,4.3,6.9,7.2,11.6,9.2c0.2,0.1,0.3,0.2,0.6,0.3c-1.2,1-2.3,2-3.4,2.9c-6.9,5.8-14.4,10.5-22.4,14.5c-7.4,3.6-15.2,6.4-23.4,8
			c-3.5,0.7-6.9,1.4-10.4,1.7c-4.6,0.3-9.3,0.4-13.9,0.3c-4-0.1-8-0.6-11.9-1.2c-5.7-0.8-11.4-2-17-3.7c-4.8-1.4-9.5-3-14.2-4.6
			c-1.3-0.4-2.4-1.4-3.5-2.1c-0.7-0.5-1.4-1-2.2-1.6c1.7-1,3.3-2,4.9-3c0.8-0.5,1.2-1.4,0.9-2.4c-1.1-2.7-2.1-5.5-3.3-8.1
			c-1.9-4.3-3.9-8.6-6.1-12.8c-1.9-3.7-4.1-7.2-6.4-10.6c-2.7-4.1-6.1-7.7-10.4-10.3c0,0-0.1-0.1-0.2-0.2c4.4-1,8.6-2.1,12.6-4.4
			c-0.2-0.5-0.4-1.1-0.7-1.6c-0.1-0.2-0.4-0.3-0.6-0.3c-1.4,0-2.8,0.1-4.2,0.2c-4.5,0.5-9,0.6-13.6,0.6c-4.8,0-9.7-0.1-14.4-0.9
			c-2.5-0.4-4.9-1.1-7.4-1.7c-1-0.2-1.9-0.6-2.8-0.8c-5.2-1.2-10-3.1-14.5-5.9c-5-3.1-9.1-7.1-11.7-12.5c-0.9-1.9-1.7-3.8-2-5.8
			c-0.3-1.7-0.4-3.4-0.3-5.1c0-2.2,0.2-4.5,0.5-6.7c0.2-2.6,1.2-5,2.4-7.2c1.6-3.1,3.4-6.1,5.1-9.2c0.6-1,0.8-2.1,0.5-3.3
			c-1.3-5.9-1.5-11.9-1.3-17.9c0.4-9.8,3-19,7.3-27.8c3.6-7.3,8.2-13.8,13.6-19.9c0.6-0.7,1.2-1.3,1.9-2c0.1-0.1,0.1-0.1,0.3-0.2
			c0.4,0.7,0.9,1.3,1.2,2.1c1.2,3,3.6,4.9,6.5,5.9c2.1,0.8,4.3,1.2,6.4,1.6c2.6,0.5,5.3,0.1,7.9-0.3c4.8-0.8,9.2-2.7,13.2-5.6
			c0.7-0.5,1.3-1,1.9-1.6c2.5-2.5,5.4-4.7,7.2-7.9c0.7-1.3,1.9-2.3,2.5-3.6c2.2-4.9,2.6-9.9,1.2-15.1c-0.1-0.2-0.1-0.5-0.2-0.8
			c1-0.2,2-0.5,2.9-0.6c3.1-0.5,6.2-0.9,9.3-1.3c0.3,0,0.7,0.1,1,0.3c1,0.6,2.2,0.1,2.5-1c1-4.7,2-9.5,3.2-14.2
			c1.5-5.7,4-11.1,6.8-16.3c1.7-3.2,3.5-6.4,5.3-9.5c0.7-1.1,1.7-2.1,2.7-3c0.4-0.3,1.3-0.2,1.8,0c0.7,0.3,1.3,0.8,1.9,1.3
			c3.1,2.7,5.7,5.8,8,9.2c5.9,8.3,10.7,17.1,14,26.8c1.6,4.7,2.7,9.5,3.6,14.4c1,5.3,1.7,10.6,1.6,15.9c0,0.6,0.8,1.7,1.4,1.7
			c0.2,0,0.5-0.1,0.6-0.2c0.6-0.7,1.1-1.5,1.8-2.3c0,0,0.2,0.1,0.3,0.2c6.6,4.9,11.5,11.2,15.9,18c3.4,5.4,6.2,11.2,8.2,17.3
			c1.3,3.9,2.3,7.8,2.7,11.8c0.4,3.5,0.7,7,0.7,10.4c0,4.5-0.4,9-1.2,13.4c-1.3,7.2-3.3,14.2-6.1,20.9c-0.2,0.4-0.7,1,0,1.4
			c0.7,0.4,1-0.3,1.3-0.7c2.1-3.1,4.2-6.1,6.3-9.2c0.7-0.9,1.4-1.8,2.1-2.7c0.1-0.1,0.3-0.2,0.4-0.3c3.6-1,7.3-1.3,11-1.1
			c3.1,0.2,6.1,1,9,2.1c3.6,1.4,6.8,3.4,9.8,5.9c5.3,4.4,9.3,9.7,12.5,15.8c2.4,4.5,3.9,9.2,4.6,14.3c0.3,2.2,0.3,4.4,0.4,6.6
			c0.1,1.1,1.2,1.9,2.2,1.6c1-0.2,1.6-0.7,2.2-1.6c0.7-1,1.5-1.8,2.2-2.8c1.5-2,3.7-2.8,6.1-3c4-0.4,8-0.1,11.9,0.5
			c3.6,0.6,7.2,0.9,10.7,1.4c0.2,0,0.6,0.3,0.6,0.5c0.6,2.3,1.2,4.6,1.6,7c0.9,6,1.1,12,1.3,18.1C280.4,219.5,280.4,219.7,280.4,220
			z M290.3,220c-2.5,0-4.9,0-7.2,0c-0.2-4.4-0.3-8.7-0.5-13c-0.3-4.2-0.9-8.5-2.2-12.6c1,0.1,2,0.3,3,0.4c1,0.1,2.1,0.2,3.1,0.3
			c0.5,0,0.7,0.2,0.9,0.7c1.1,3.8,1.9,7.6,2.3,11.5c0.3,3,0.3,6,0.5,9.1c0,1,0.1,2,0.1,2.9C290.3,219.5,290.3,219.8,290.3,220z"/>
	</g>
	<g>
		<path class="st0" d="M177.9,208.9c-0.4-1.3-0.8-2.7-1.5-3.8c-1.9-3.2-4.6-5.8-7.6-8c-4.5-3.2-9.4-5.3-15-5.6
			c-3.7-0.2-7.2,0.1-10.6,1.5c-2,0.8-4.1,1.5-5.5,3.3c-1.8,2.4-3.7,4.7-5.2,7.3c-4.5,8-7.7,16.5-9.3,25.5c-0.6,3.3-1,6.6-1.4,9.9
			c-0.2,1.2-0.1,2.5-0.2,3.7c-0.1,1.2,0.5,2.1,1.6,2.3c0.4,0.1,0.9,0.2,1.3,0.4c6.6,2,13.2,4,19.8,5.9c5,1.4,10.1,2.7,15.2,3.9
			c1.2,0.3,2.2-0.2,2.7-1.3c0.4-0.9,0.9-1.9,1.2-2.9c1.6-4.3,3.3-8.6,4.8-12.9c1.1-2.9,2-5.9,2.9-8.9c0.3-0.8,0.4-1.7,0.3-2.6
			c0-0.4-0.4-1-0.7-1.2c-0.5-0.3-0.9,0-1.4,0.3c-0.9,0.6-1.4,1.5-1.8,2.4c-1.5,3.1-2.9,6.3-4.3,9.5c-0.3,0.6-0.5,1.2-0.8,1.7
			c-10.9-3.8-22-6.6-33.3-8.9c0-0.3,0-0.5,0.1-0.7c0.6-2.8,1.2-5.6,1.9-8.4c1.6-6.1,3.6-12,6.4-17.6c1.1-2.2,2.9-3.8,5.1-4.9
			c3.5-1.7,7.2-2.6,11.1-2.2c2.8,0.3,5.4,0.9,7.8,2.1c5.5,2.8,10,6.7,12.9,12.2c0.7,1.3,2.3,1.3,3,0
			C177.9,210.3,178.1,209.5,177.9,208.9z M161.6,241.4c-0.9,2.3-1.9,4.6-2.8,6.9c-10.4-2.4-20.7-4.8-31.2-7.2c0.4-3,0.8-5.8,1.1-8.5
			C139.7,235.5,150.6,238.5,161.6,241.4z"/>
	</g>
</g>
</svg>
