<svg id="Layer_1" data-name="Layer 1" xmlns="http://www.w3.org/2000/svg" viewBox="0 0 80 50"><defs><style>.cls-1{fill:#7ec8e2;}</style></defs><polygon class="cls-1" points="19.42 11.12 24.68 11.35 25.12 5.54 24.68 4.98 5.44 4.98 5 10.8 5.48 11.35 10.78 11.12 11.29 11.12 11.49 23.18 11.09 30.75 19.06 30.75 18.74 22.39 18.94 11.12 19.42 11.12"/><path class="cls-1" d="M60.77,13.69H53.24l-.05,0v0h0l-.74,1.58L50.36,19.6H50l-2-5.91H39.66l6.76,14.19-.11.24-.3.61a15.87,15.87,0,0,1-7.86,8.18c-6.41,3.25-15.52.09-15.62.06L20.3,43.24A35.35,35.35,0,0,0,31.13,45a22.12,22.12,0,0,0,10-2.17A23.09,23.09,0,0,0,48.71,37,25.43,25.43,0,0,0,52,31.65l.29-.58L59,17Z"/><path class="cls-1" d="M74.17,23.11a5.7,5.7,0,0,0-2-1.75,20.65,20.65,0,0,0-2.78-1.19,16.14,16.14,0,0,1-1.8-.76.87.87,0,0,1-.53-.76c0-.32.26-.48.77-.48a6.75,6.75,0,0,1,2.16.51A13.21,13.21,0,0,1,72.71,20l1-.26,1-5.6a17.65,17.65,0,0,0-5.84-1,11,11,0,0,0-4.58.88,6.78,6.78,0,0,0-2.92,2.38,6.1,6.1,0,0,0-1,3.41,5,5,0,0,0,.85,3,6,6,0,0,0,2,1.81A20.4,20.4,0,0,0,66,25.86a14.63,14.63,0,0,1,1.75.74.81.81,0,0,1,.5.72c0,.38-.29.58-.89.58a17.82,17.82,0,0,1-8.83-3.81l-.62.47-2.52,5.35a30.09,30.09,0,0,0,11.09,2.76,10.86,10.86,0,0,0,4.87-1A6.07,6.07,0,0,0,75,26,4.82,4.82,0,0,0,74.17,23.11Z"/><path class="cls-1" d="M21.37,23.14A9.36,9.36,0,0,0,23.72,30a8.89,8.89,0,0,0,6.68,2.43c3.16,0,5.62-.88,7.35-2.64s2.61-4.26,2.61-7.47A9.12,9.12,0,0,0,38,15.54a9,9,0,0,0-6.67-2.37c-3.16,0-5.62.87-7.35,2.61S21.37,20,21.37,23.14ZM29,20.49c.26-1.21.86-1.92,1.91-1.92s1.6.75,1.92,1.92a12.76,12.76,0,0,1,0,4.61c-.25,1-.82,1.88-1.91,1.88S29.21,26.16,29,25.1A12.48,12.48,0,0,1,29,20.49Z"/></svg>