<svg id="Layer_1" data-name="Layer 1" xmlns="http://www.w3.org/2000/svg" viewBox="0 0 80 50"><defs><style>.cls-1{fill:#307d8f;}.cls-2{fill:#64cbe6;}</style></defs><path class="cls-1" d="M26.28,8.66V5.35a.21.21,0,0,1,.11-.16.46.46,0,0,1,.23-.06.48.48,0,0,1,.24.06.19.19,0,0,1,.11.16V6.56h.81a.16.16,0,0,1,.14.08.35.35,0,0,1,0,.36.19.19,0,0,1-.14.08H27V8.66a.51.51,0,0,0,.1.34.55.55,0,0,0,.36.1h.24a.28.28,0,0,1,.29.3.32.32,0,0,1-.08.21.29.29,0,0,1-.21.08h-.24C26.67,9.69,26.28,9.35,26.28,8.66Z"/><path class="cls-1" d="M30.33,8.26l.23,0a.64.64,0,0,0,.18-.06A.3.3,0,0,0,30.89,8a.93.93,0,0,0,.05-.32,1.11,1.11,0,0,0-.39-.87,1.35,1.35,0,0,0-.93-.34,1.33,1.33,0,0,0-1,.38,1.18,1.18,0,0,0-.4.9v.62a1.19,1.19,0,0,0,.43,1,1.87,1.87,0,0,0,1.88.19c.21-.11.32-.22.32-.33A.37.37,0,0,0,30.8,9a.26.26,0,0,0-.19-.11.92.92,0,0,0-.3.13,1.14,1.14,0,0,1-.51.13,1,1,0,0,1-.62-.2.65.65,0,0,1-.24-.53V8.26Zm-1.39-.65a.56.56,0,0,1,.2-.44.73.73,0,0,1,.95,0,.58.58,0,0,1,.19.44c0,.08,0,.13-.05.16a.35.35,0,0,1-.19,0h-1.1V7.61Z"/><path class="cls-1" d="M33.46,8.26l.23,0a.64.64,0,0,0,.18-.06A.3.3,0,0,0,34,8a.93.93,0,0,0,0-.32,1.11,1.11,0,0,0-.39-.87,1.35,1.35,0,0,0-.93-.34,1.33,1.33,0,0,0-1,.38,1.18,1.18,0,0,0-.4.9v.62a1.19,1.19,0,0,0,.43,1,1.64,1.64,0,0,0,1.1.36,1.67,1.67,0,0,0,.78-.17c.21-.11.32-.22.32-.33a.37.37,0,0,0-.08-.2.26.26,0,0,0-.2-.11,1,1,0,0,0-.29.13,1.14,1.14,0,0,1-.51.13,1,1,0,0,1-.62-.2.65.65,0,0,1-.24-.53V8.26Zm-1.39-.65a.56.56,0,0,1,.2-.44A.67.67,0,0,1,32.74,7a.68.68,0,0,1,.48.18.58.58,0,0,1,.19.44c0,.08,0,.13,0,.16a.38.38,0,0,1-.19,0h-1.1V7.61Z"/><path class="cls-1" d="M34.62,8.72V5.25a.13.13,0,0,1,.07-.12.23.23,0,0,1,.14,0,.24.24,0,0,1,.15,0,.13.13,0,0,1,.07.12V6.57h.85a.13.13,0,0,1,.11,0,.23.23,0,0,1,0,.26.16.16,0,0,1-.11,0h-.85V8.71a.62.62,0,0,0,.13.45.69.69,0,0,0,.48.13h.19a.21.21,0,0,1,.2.2.2.2,0,0,1-.06.14.18.18,0,0,1-.14.06h-.19C35,9.69,34.62,9.37,34.62,8.72Z"/><path class="cls-1" d="M36.56,8.45V6.68a.17.17,0,0,1,.06-.11.28.28,0,0,1,.16-.05.24.24,0,0,1,.14.05.16.16,0,0,1,.07.11V8.44a.84.84,0,0,0,.24.59A.81.81,0,0,0,38.4,9a.84.84,0,0,0,.24-.59V6.68a.12.12,0,0,1,.07-.11.2.2,0,0,1,.15-.05.19.19,0,0,1,.14.05.12.12,0,0,1,.07.11V8.45a1.16,1.16,0,0,1-.38.86,1.19,1.19,0,0,1-.88.38,1.2,1.2,0,0,1-.88-.38A1.15,1.15,0,0,1,36.56,8.45Z"/><path class="cls-1" d="M39.69,9.52V6.73a.14.14,0,0,1,.06-.12.22.22,0,0,1,.15,0,.23.23,0,0,1,.14,0,.16.16,0,0,1,.06.12v.32a1.12,1.12,0,0,1,.35-.37A.94.94,0,0,1,41,6.53h.24a.17.17,0,0,1,.12.06.22.22,0,0,1,0,.28.17.17,0,0,1-.12.06H41a.82.82,0,0,0-.6.27.93.93,0,0,0-.27.69V9.52a.17.17,0,0,1-.06.12.25.25,0,0,1-.3,0A.17.17,0,0,1,39.69,9.52Z"/><path class="cls-1" d="M41.81,8.72V5.25a.13.13,0,0,1,.07-.12.23.23,0,0,1,.14,0,.29.29,0,0,1,.16,0,.14.14,0,0,1,.06.12V6.57h.85a.12.12,0,0,1,.11,0,.23.23,0,0,1,0,.26.14.14,0,0,1-.11,0h-.85V8.71a.62.62,0,0,0,.14.45.67.67,0,0,0,.48.13H43a.17.17,0,0,1,.14.06.18.18,0,0,1,.06.14.2.2,0,0,1-.06.14.17.17,0,0,1-.14.06h-.18C42.16,9.69,41.81,9.37,41.81,8.72Z"/><path class="cls-1" d="M43.89,9.52V5.25a.18.18,0,0,1,0-.12.27.27,0,0,1,.16,0,.24.24,0,0,1,.15,0,.14.14,0,0,1,.06.12V9.52a.17.17,0,0,1-.06.12.25.25,0,0,1-.3,0A.17.17,0,0,1,43.89,9.52Z"/><path class="cls-1" d="M46.82,8.21H47l.17-.06A.25.25,0,0,0,47.35,8a.78.78,0,0,0,0-.29A1.12,1.12,0,0,0,47,6.83a1.25,1.25,0,0,0-.87-.35,1.21,1.21,0,0,0-.89.36,1.15,1.15,0,0,0-.37.86v.74a1.18,1.18,0,0,0,.39.91,1.52,1.52,0,0,0,1,.34,1.48,1.48,0,0,0,.7-.15c.19-.09.29-.19.29-.28a.22.22,0,0,0-.06-.14.19.19,0,0,0-.13-.07.25.25,0,0,0-.14.07,1.25,1.25,0,0,1-.26.13.94.94,0,0,1-.39.07,1.09,1.09,0,0,1-.73-.24.79.79,0,0,1-.28-.62V8.21Zm-1.49-.57a.77.77,0,0,1,.24-.56.8.8,0,0,1,.58-.24.78.78,0,0,1,.59.25.82.82,0,0,1,.24.58c0,.09,0,.15-.07.18a.51.51,0,0,1-.26,0H45.33V7.64Z"/><polygon class="cls-2" points="18.72 10.51 23.97 10.74 24.41 4.93 23.97 4.37 4.73 4.37 4.3 10.19 4.78 10.74 10.07 10.51 10.59 10.51 10.79 22.57 10.39 30.14 18.36 30.14 18.04 21.78 18.24 10.51 18.72 10.51"/><path class="cls-2" d="M60.07,13.08H52.54l-.06,0v0h0l-.73,1.58L49.66,19h-.35l-2-5.91H39l6.77,14.19-.12.24c-.09.2-.19.4-.3.61a15.79,15.79,0,0,1-7.85,8.18c-6.42,3.24-15.53.09-15.62.06L19.6,42.63a35.17,35.17,0,0,0,10.82,1.78,22.19,22.19,0,0,0,10-2.17A22.94,22.94,0,0,0,48,36.36,25.12,25.12,0,0,0,51.28,31c.09-.2.19-.39.28-.58l6.69-14Z"/><path class="cls-2" d="M73.47,22.5a5.79,5.79,0,0,0-2-1.75,20.28,20.28,0,0,0-2.79-1.19,15.78,15.78,0,0,1-1.79-.76.87.87,0,0,1-.54-.77c0-.31.26-.47.78-.47a6.75,6.75,0,0,1,2.16.51A13.47,13.47,0,0,1,72,19.42l1-.26,1-5.6a17.69,17.69,0,0,0-5.84-1,10.88,10.88,0,0,0-4.58.88,6.78,6.78,0,0,0-2.92,2.38,6.11,6.11,0,0,0-1,3.41,5.07,5.07,0,0,0,.85,3,6,6,0,0,0,2,1.81,20.22,20.22,0,0,0,2.8,1.2A15,15,0,0,1,67,26a.82.82,0,0,1,.5.71c0,.39-.3.59-.89.59a17.75,17.75,0,0,1-8.83-3.81l-.63.47L54.67,29.3a30.13,30.13,0,0,0,11.09,2.76,11,11,0,0,0,4.88-1,6.07,6.07,0,0,0,3.66-5.68A4.88,4.88,0,0,0,73.47,22.5Z"/><path class="cls-2" d="M20.66,22.53A9.38,9.38,0,0,0,23,29.34a8.87,8.87,0,0,0,6.67,2.43q4.75,0,7.36-2.65t2.61-7.46a9.17,9.17,0,0,0-2.36-6.73,9,9,0,0,0-6.67-2.37q-4.75,0-7.36,2.61T20.66,22.53Zm7.58-2.65c.26-1.21.86-1.92,1.92-1.92s1.6.74,1.92,1.92a12.76,12.76,0,0,1,0,4.61c-.25,1-.82,1.88-1.92,1.88s-1.66-.83-1.92-1.88A12.93,12.93,0,0,1,28.24,19.88Z"/></svg>