<svg id="Layer_1" data-name="Layer 1" xmlns="http://www.w3.org/2000/svg" viewBox="0 0 100 50"><defs><style>.cls-1{fill:#fff;}</style></defs><path class="cls-1" d="M5,30.42V16.32a.82.82,0,0,1,.45-.68,1.94,1.94,0,0,1,1-.28,2,2,0,0,1,1,.28.81.81,0,0,1,.46.68v5.15h3.44a.7.7,0,0,1,.59.32,1.35,1.35,0,0,1,.22.78,1.32,1.32,0,0,1-.22.77.68.68,0,0,1-.59.32H8v6.76a1.94,1.94,0,0,0,.44,1.43,2.19,2.19,0,0,0,1.53.42h1a1.23,1.23,0,0,1,.93.37,1.36,1.36,0,0,1,0,1.8,1.2,1.2,0,0,1-.93.37h-1C6.64,34.81,5,33.34,5,30.42Z"/><path class="cls-1" d="M22.28,28.7a6.1,6.1,0,0,0,1-.06,2.55,2.55,0,0,0,.79-.27,1.31,1.31,0,0,0,.62-.75,4.08,4.08,0,0,0,.19-1.39,4.74,4.74,0,0,0-1.64-3.69,5.75,5.75,0,0,0-4-1.47,5.79,5.79,0,0,0-4.13,1.62,5.09,5.09,0,0,0-1.72,3.84v2.68a5,5,0,0,0,1.83,4,7,7,0,0,0,4.7,1.55,7.12,7.12,0,0,0,3.32-.71q1.35-.7,1.35-1.41a1.44,1.44,0,0,0-.34-.87,1,1,0,0,0-.81-.45,4.86,4.86,0,0,0-1.26.53,4.6,4.6,0,0,1-2.18.54,4,4,0,0,1-2.64-.83,2.77,2.77,0,0,1-1-2.26V28.7Zm-5.94-2.77a2.38,2.38,0,0,1,.85-1.87,3,3,0,0,1,2-.73,2.81,2.81,0,0,1,2,.77A2.49,2.49,0,0,1,22.06,26a.82.82,0,0,1-.21.67,1.44,1.44,0,0,1-.83.17H16.34Z"/><path class="cls-1" d="M35.62,28.7a6.19,6.19,0,0,0,1-.06,2.64,2.64,0,0,0,.79-.27,1.31,1.31,0,0,0,.62-.75,4.08,4.08,0,0,0,.19-1.39,4.74,4.74,0,0,0-1.64-3.69,6.07,6.07,0,0,0-8.09.15,5.09,5.09,0,0,0-1.72,3.84v2.68a5,5,0,0,0,1.83,4,7,7,0,0,0,4.7,1.55,7.12,7.12,0,0,0,3.32-.71q1.35-.7,1.35-1.41a1.44,1.44,0,0,0-.34-.87,1,1,0,0,0-.81-.45,4.86,4.86,0,0,0-1.26.53,4.6,4.6,0,0,1-2.18.54,4,4,0,0,1-2.64-.83,2.77,2.77,0,0,1-1-2.26V28.7Zm-5.94-2.77a2.38,2.38,0,0,1,.85-1.87,3,3,0,0,1,2-.73,2.81,2.81,0,0,1,2,.77A2.53,2.53,0,0,1,35.4,26a.82.82,0,0,1-.21.67,1.47,1.47,0,0,1-.83.17H29.68Z"/><path class="cls-1" d="M40.55,30.68V15.87a.56.56,0,0,1,.28-.48,1.09,1.09,0,0,1,.62-.2,1.14,1.14,0,0,1,.65.2.59.59,0,0,1,.28.47V21.5H46a.54.54,0,0,1,.46.23.79.79,0,0,1,.19.54.84.84,0,0,1-.19.55A.55.55,0,0,1,46,23H42.38v7.59A2.56,2.56,0,0,0,43,32.55a3,3,0,0,0,2,.54h.78a.79.79,0,0,1,.61.25.81.81,0,0,1,.24.59.89.89,0,0,1-.24.62.8.8,0,0,1-.61.26H45Q40.55,34.81,40.55,30.68Z"/><path class="cls-1" d="M48.82,29.52V22a.63.63,0,0,1,.27-.48,1,1,0,0,1,.66-.22,1,1,0,0,1,.62.22.62.62,0,0,1,.28.48v7.5a3.56,3.56,0,0,0,1,2.5,3.37,3.37,0,0,0,5,0,3.56,3.56,0,0,0,1-2.5V22A.56.56,0,0,1,58,21.5a1.12,1.12,0,0,1,1.28,0,.57.57,0,0,1,.27.47v7.55a5.08,5.08,0,0,1-1.59,3.7,5.35,5.35,0,0,1-9.11-3.7Z"/><path class="cls-1" d="M62.15,34.08V22.17a.58.58,0,0,1,.25-.48,1,1,0,0,1,.65-.19.94.94,0,0,1,.62.2.58.58,0,0,1,.25.48v1.4A4.45,4.45,0,0,1,65.41,22a4.09,4.09,0,0,1,2.28-.65h1a.64.64,0,0,1,.5.26.88.88,0,0,1,.23.6.9.9,0,0,1-.23.6.66.66,0,0,1-.5.25h-1a3.53,3.53,0,0,0-2.59,1.14,4,4,0,0,0-1.12,3v6.94a.65.65,0,0,1-.27.5,1,1,0,0,1-.66.23,1,1,0,0,1-.64-.23A.67.67,0,0,1,62.15,34.08Z"/><path class="cls-1" d="M71.21,30.68V15.87a.56.56,0,0,1,.28-.48,1.09,1.09,0,0,1,.62-.2,1.11,1.11,0,0,1,.65.2.56.56,0,0,1,.28.47V21.5h3.63a.57.57,0,0,1,.47.23.84.84,0,0,1,.18.54.89.89,0,0,1-.18.55.59.59,0,0,1-.47.22H73v7.59a2.56,2.56,0,0,0,.58,1.92,3,3,0,0,0,2,.54h.79a.79.79,0,0,1,.6.25.81.81,0,0,1,.24.59.89.89,0,0,1-.24.62.79.79,0,0,1-.6.26h-.79Q71.21,34.81,71.21,30.68Z"/><path class="cls-1" d="M80,34.08V15.86a.59.59,0,0,1,.26-.47,1,1,0,0,1,.65-.2,1.1,1.1,0,0,1,.66.2.59.59,0,0,1,.26.47V34.08a.66.66,0,0,1-.26.5,1,1,0,0,1-.66.23,1,1,0,0,1-.64-.23A.64.64,0,0,1,80,34.08Z"/><path class="cls-1" d="M92.55,28.5a5.72,5.72,0,0,0,.93-.05,3,3,0,0,0,.75-.25,1.25,1.25,0,0,0,.59-.68A3.66,3.66,0,0,0,95,26.26a4.79,4.79,0,0,0-1.56-3.66,5.44,5.44,0,0,0-7.5.06,4.94,4.94,0,0,0-1.58,3.65v3.15a4.9,4.9,0,0,0,1.69,3.87,6.41,6.41,0,0,0,4.36,1.48,6.33,6.33,0,0,0,3-.64c.81-.42,1.21-.83,1.21-1.22a1,1,0,0,0-.23-.58.72.72,0,0,0-.55-.29,1.13,1.13,0,0,0-.61.28,4.81,4.81,0,0,1-1.1.56,4.46,4.46,0,0,1-1.67.28,4.6,4.6,0,0,1-3.08-1,3.27,3.27,0,0,1-1.2-2.66v-1Zm-6.36-2.41a3.22,3.22,0,0,1,1-2.4,3.38,3.38,0,0,1,2.49-1,3.32,3.32,0,0,1,2.52,1.06,3.52,3.52,0,0,1,1,2.46A.88.88,0,0,1,93,27a2.38,2.38,0,0,1-1.13.18H86.19Z"/></svg>