<svg id="Layer_1" data-name="Layer 1" xmlns="http://www.w3.org/2000/svg" viewBox="0 0 100 50"><defs><style>.cls-1{fill:#bbb;}</style></defs><path class="cls-1" d="M21.62,19.13v-9a.53.53,0,0,1,.29-.44,1.29,1.29,0,0,1,.65-.17,1.34,1.34,0,0,1,.65.17.52.52,0,0,1,.3.44v3.28H25.7a.43.43,0,0,1,.37.21.81.81,0,0,1,.15.49.84.84,0,0,1-.15.5.44.44,0,0,1-.37.2H23.51v4.31a1.24,1.24,0,0,0,.28.92,1.37,1.37,0,0,0,1,.27h.63a.74.74,0,0,1,.59.23.86.86,0,0,1,0,1.15.78.78,0,0,1-.59.23h-.63C22.67,21.93,21.62,21,21.62,19.13Z"/><path class="cls-1" d="M32.65,18a4.77,4.77,0,0,0,.61,0,1.64,1.64,0,0,0,.5-.17.88.88,0,0,0,.4-.48,2.73,2.73,0,0,0,.12-.89,3,3,0,0,0-1.05-2.36,3.89,3.89,0,0,0-5.16.1A3.27,3.27,0,0,0,27,16.65v1.71A3.23,3.23,0,0,0,28.14,21a4.53,4.53,0,0,0,3,1,4.55,4.55,0,0,0,2.12-.45c.57-.3.86-.6.86-.9a.93.93,0,0,0-.21-.55.63.63,0,0,0-.53-.29,2.83,2.83,0,0,0-.79.34,3,3,0,0,1-1.4.34,2.52,2.52,0,0,1-1.68-.53,1.76,1.76,0,0,1-.65-1.44V18Zm-3.79-1.77a1.49,1.49,0,0,1,.54-1.19,1.87,1.87,0,0,1,1.29-.47A1.77,1.77,0,0,1,32,15.1a1.58,1.58,0,0,1,.52,1.2c0,.22,0,.36-.13.43a.94.94,0,0,1-.53.1h-3Z"/><path class="cls-1" d="M41.16,18a4.77,4.77,0,0,0,.61,0,1.56,1.56,0,0,0,.5-.17.88.88,0,0,0,.4-.48,2.73,2.73,0,0,0,.12-.89,3,3,0,0,0-1-2.36,3.89,3.89,0,0,0-5.16.1,3.26,3.26,0,0,0-1.09,2.45v1.71A3.22,3.22,0,0,0,36.65,21a5.14,5.14,0,0,0,5.12.53c.57-.3.86-.6.86-.9a.93.93,0,0,0-.21-.55.63.63,0,0,0-.52-.29,2.72,2.72,0,0,0-.8.34,3,3,0,0,1-1.4.34A2.52,2.52,0,0,1,38,19.89a1.76,1.76,0,0,1-.65-1.44V18Zm-3.79-1.77a1.49,1.49,0,0,1,.54-1.19,1.87,1.87,0,0,1,1.29-.47,1.77,1.77,0,0,1,1.29.49A1.59,1.59,0,0,1,41,16.3a.52.52,0,0,1-.14.43.94.94,0,0,1-.53.1h-3Z"/><path class="cls-1" d="M44.3,19.3V9.85a.38.38,0,0,1,.18-.31.7.7,0,0,1,.4-.12.73.73,0,0,1,.41.12.38.38,0,0,1,.18.31v3.59h2.32a.34.34,0,0,1,.29.15.5.5,0,0,1,.12.34.53.53,0,0,1-.12.35.34.34,0,0,1-.29.15H45.47v4.84a1.62,1.62,0,0,0,.37,1.22,1.89,1.89,0,0,0,1.3.35h.5A.5.5,0,0,1,48,21a.52.52,0,0,1,.15.38.6.6,0,0,1-.15.39.5.5,0,0,1-.39.16h-.5C45.25,21.93,44.3,21.05,44.3,19.3Z"/><path class="cls-1" d="M49.58,18.56v-4.8a.41.41,0,0,1,.17-.3.64.64,0,0,1,.42-.15.6.6,0,0,1,.4.15.38.38,0,0,1,.18.3v4.78a2.27,2.27,0,0,0,.66,1.6,2.13,2.13,0,0,0,3.16,0,2.24,2.24,0,0,0,.67-1.6v-4.8a.35.35,0,0,1,.18-.3.74.74,0,0,1,.41-.13.66.66,0,0,1,.4.13.37.37,0,0,1,.18.3v4.82a3.25,3.25,0,0,1-1,2.36,3.41,3.41,0,0,1-5.81-2.36Z"/><path class="cls-1" d="M58.08,21.47v-7.6a.38.38,0,0,1,.16-.3.64.64,0,0,1,.42-.13.58.58,0,0,1,.39.13.37.37,0,0,1,.16.31v.89a2.91,2.91,0,0,1,1-1,2.55,2.55,0,0,1,1.45-.42h.63a.41.41,0,0,1,.32.17.56.56,0,0,1,0,.76.41.41,0,0,1-.32.17h-.63a2.27,2.27,0,0,0-1.65.72A2.59,2.59,0,0,0,59.25,17v4.43a.43.43,0,0,1-.17.32.64.64,0,0,1-.42.14.66.66,0,0,1-.41-.14A.43.43,0,0,1,58.08,21.47Z"/><path class="cls-1" d="M63.87,19.3V9.85a.38.38,0,0,1,.18-.31.69.69,0,0,1,.39-.12.71.71,0,0,1,.41.12.38.38,0,0,1,.18.31v3.59h2.32a.37.37,0,0,1,.3.15.55.55,0,0,1,.11.34.58.58,0,0,1-.11.35.37.37,0,0,1-.3.15H65v4.84a1.66,1.66,0,0,0,.37,1.22,1.91,1.91,0,0,0,1.3.35h.51a.49.49,0,0,1,.38.16.53.53,0,0,1,.16.38.61.61,0,0,1-.16.39.49.49,0,0,1-.38.16H66.7C64.81,21.93,63.87,21.05,63.87,19.3Z"/><path class="cls-1" d="M69.5,21.47V9.85a.41.41,0,0,1,.16-.31.7.7,0,0,1,.42-.12.72.72,0,0,1,.42.12.4.4,0,0,1,.17.31V21.47a.43.43,0,0,1-.17.32.61.61,0,0,1-.42.14.6.6,0,0,1-.41-.14A.43.43,0,0,1,69.5,21.47Z"/><path class="cls-1" d="M77.48,17.91a4.75,4.75,0,0,0,.6,0,1.8,1.8,0,0,0,.47-.17.74.74,0,0,0,.38-.43,2.21,2.21,0,0,0,.12-.8,3.08,3.08,0,0,0-1-2.34,3.49,3.49,0,0,0-4.79,0,3.15,3.15,0,0,0-1,2.33v2A3.12,3.12,0,0,0,73.34,21a4,4,0,0,0,2.78.94,4.13,4.13,0,0,0,1.92-.4c.51-.27.77-.53.77-.78a.61.61,0,0,0-.15-.37.43.43,0,0,0-.35-.19.73.73,0,0,0-.39.18,3,3,0,0,1-.7.36,2.89,2.89,0,0,1-1.07.18,2.93,2.93,0,0,1-2-.64,2.09,2.09,0,0,1-.77-1.69v-.67Zm-4.06-1.54a2.05,2.05,0,0,1,.66-1.53,2.2,2.2,0,0,1,1.59-.65,2.13,2.13,0,0,1,1.61.68,2.24,2.24,0,0,1,.63,1.57c0,.25-.06.42-.18.49a1.4,1.4,0,0,1-.71.12h-3.6Z"/><path class="cls-1" d="M5.62,40.33c-.47,0-.66-.21-.61-.68L6.07,27.52a.63.63,0,0,1,.73-.67h8.35c.47,0,.65.2.61.67l-.19,2.23a.64.64,0,0,1-.73.67H10.06l-.17,1.95h3.26c.47,0,.66.21.61.68l-.19,2.24a.64.64,0,0,1-.73.68H9.58l-.33,3.68a.64.64,0,0,1-.73.68Z"/><path class="cls-1" d="M29.89,40.33c-.47,0-.66-.21-.62-.68l1.06-12.13a.64.64,0,0,1,.74-.67h2.58a1.16,1.16,0,0,1,1.06.5l2.49,5.81.49-5.64a.63.63,0,0,1,.73-.67h2.81c.47,0,.66.2.62.67L40.78,39.65a.64.64,0,0,1-.73.68H37.56c-.23,0-.42,0-.54-.13a3.06,3.06,0,0,1-.39-.55l-2.72-5.53-.48,5.53a.65.65,0,0,1-.74.68Z"/><path class="cls-1" d="M43.23,40.33c-.47,0-.66-.21-.62-.68l1.06-12.13a.65.65,0,0,1,.74-.67h6.31A4.05,4.05,0,0,1,55,31l-.46,5.2c-.22,2.6-1.82,4.14-5,4.14Zm3.88-3.54h2a1.45,1.45,0,0,0,1.31-1.24l.34-3.91a1.18,1.18,0,0,0-1.1-1.22h-2Z"/><path class="cls-1" d="M62.88,26.54c-3.83,0-6,2.2-6.21,4.48l-.48,5.42c-.2,2.29,1.73,4.14,5.46,4.14,3.89,0,6-1.85,6.17-4.14L68.29,31C68.49,28.74,66.61,26.54,62.88,26.54Zm.92,8.72c-.06.67-.67,1.28-1.8,1.28s-1.64-.61-1.58-1.28l.29-3.39c.06-.67.69-1.28,1.81-1.28s1.63.61,1.58,1.28Z"/><path class="cls-1" d="M69.84,40.3c-.47,0-.66-.2-.62-.67L70.28,27.5a.65.65,0,0,1,.74-.68h3a.8.8,0,0,1,.81.56l1.42,3.06c.11.22.16.31.31.31h.17c.15,0,.21-.09.36-.31L79,27.38a1,1,0,0,1,.91-.56h3c.47,0,.66.21.61.68L82.53,39.63a.63.63,0,0,1-.73.67H78.92c-.49,0-.66-.2-.62-.67L78.88,33l-1.28,2a1.1,1.1,0,0,1-1,.6H75.8a.9.9,0,0,1-.94-.6l-.92-2-.58,6.59a.63.63,0,0,1-.73.67Z"/><path class="cls-1" d="M84.73,40.3c-.47,0-.66-.2-.62-.67l.2-2.19a.64.64,0,0,1,.73-.68h5a.54.54,0,0,0,.54-.54c0-.43-.12-.6-.43-.64l-2.78-.39c-1.73-.26-2.81-1-2.63-3.11l.18-2c.18-2.14,1.73-3.3,4.16-3.3h5.24c.47,0,.66.21.62.68l-.2,2.22a.64.64,0,0,1-.73.68H89.68a.55.55,0,0,0-.56.56.5.5,0,0,0,.45.6l2.76.37c1.74.27,2.83,1,2.65,3.11l-.17,2c-.19,2.13-1.75,3.29-4.17,3.29Z"/><path class="cls-1" d="M19.3,40.33H16.5c-.47,0-.66-.21-.62-.69l.82-9.43c.2-2.3,1.39-3.88,6.11-3.88s5.68,1.58,5.47,3.88l-.82,9.43a.65.65,0,0,1-.75.69H23.82c-.48,0-.67-.21-.63-.69l.25-2.84H20.3l-.25,2.84A.65.65,0,0,1,19.3,40.33Zm1.3-7h3.15L24,30.86c.05-.51-.15-.89-1.48-.89s-1.62.38-1.66.89Z"/></svg>