<?xml version="1.0" encoding="utf-8"?>
<!-- Generator: Adobe Illustrator 24.1.0, SVG Export Plug-In . SVG Version: 6.00 Build 0)  -->
<svg version="1.1" id="Layer_1" xmlns="http://www.w3.org/2000/svg" xmlns:xlink="http://www.w3.org/1999/xlink" x="0px" y="0px"
	 viewBox="0 0 145 40" style="enable-background:new 0 0 145 40;" xml:space="preserve">
<style type="text/css">
	.st0{fill:#8BBD42;}
	.st1{fill:#2B6821;}
	.st2{fill:#414042;}
</style>
<g>
	<path class="st0" d="M46.3,8.9V0.6c0-0.2,0.1-0.3,0.3-0.4c0.2-0.1,0.4-0.2,0.6-0.2c0.2,0,0.4,0.1,0.6,0.2C47.9,0.3,48,0.5,48,0.6v3
		h2c0.1,0,0.3,0.1,0.3,0.2c0.1,0.1,0.1,0.3,0.1,0.4c0,0.2,0,0.3-0.1,0.5c-0.1,0.1-0.2,0.2-0.3,0.2h-2v3.9c0,0.3,0.1,0.6,0.3,0.8
		c0.3,0.2,0.6,0.3,0.9,0.2h0.6c0.2,0,0.4,0.1,0.5,0.2c0.3,0.3,0.3,0.8,0,1c-0.1,0.1-0.3,0.2-0.5,0.2h-0.6
		C47.3,11.4,46.3,10.6,46.3,8.9z"/>
	<path class="st0" d="M56.4,7.8c0.2,0,0.4,0,0.6,0c0.2,0,0.3-0.1,0.5-0.2c0.2-0.1,0.3-0.3,0.4-0.4c0.1-0.3,0.1-0.5,0.1-0.8
		c0-0.8-0.3-1.6-1-2.2c-1.4-1.2-3.4-1.1-4.7,0.1c-0.6,0.6-1,1.4-1,2.2v1.6c0,0.9,0.3,1.8,1,2.4c0.8,0.6,1.7,0.9,2.7,0.9
		c0.7,0,1.3-0.1,1.9-0.4c0.5-0.3,0.8-0.5,0.8-0.8c0-0.2-0.1-0.4-0.2-0.5c-0.1-0.2-0.3-0.3-0.5-0.3c-0.3,0.1-0.5,0.2-0.7,0.3
		c-0.4,0.2-0.8,0.3-1.3,0.3c-0.6,0-1.1-0.1-1.5-0.5c-0.4-0.3-0.6-0.8-0.6-1.3V7.8H56.4z M52.9,6.2c0-0.4,0.2-0.8,0.5-1.1
		c0.3-0.3,0.7-0.4,1.2-0.4c0.4,0,0.9,0.2,1.2,0.5c0.3,0.3,0.5,0.7,0.5,1.1c0,0.2,0,0.3-0.1,0.4c-0.1,0.1-0.3,0.1-0.5,0.1h-2.7V6.2z"
		/>
	<path class="st0" d="M64.1,7.8c0.2,0,0.4,0,0.6,0c0.2,0,0.3-0.1,0.5-0.2c0.2-0.1,0.3-0.3,0.4-0.4c0.1-0.3,0.1-0.5,0.1-0.8
		c0-0.8-0.3-1.6-0.9-2.2c-1.4-1.2-3.4-1.1-4.7,0.1c-0.6,0.6-1,1.4-1,2.2v1.6c-0.1,0.9,0.3,1.8,1,2.4c1.4,1,3.1,1.2,4.7,0.5
		c0.5-0.3,0.8-0.5,0.8-0.8c0-0.2-0.1-0.4-0.2-0.5c-0.1-0.2-0.3-0.3-0.5-0.3c-0.3,0.1-0.5,0.2-0.7,0.3c-0.4,0.2-0.8,0.3-1.3,0.3
		c-0.6,0-1.1-0.2-1.6-0.5c-0.4-0.3-0.6-0.8-0.6-1.3V7.8H64.1z M60.7,6.2c0-0.4,0.2-0.8,0.5-1.1c0.3-0.3,0.7-0.4,1.2-0.4
		c0.4,0,0.9,0.1,1.2,0.4C63.8,5.4,64,5.9,64,6.3c0,0.1,0,0.3-0.1,0.4c-0.1,0.1-0.3,0.1-0.5,0.1h-2.7L60.7,6.2z"/>
	<path class="st1" d="M67,9V0.4c0-0.1,0.1-0.2,0.2-0.3C67.3,0,67.4,0,67.5,0c0.1,0,0.3,0,0.4,0.1c0.1,0.1,0.2,0.2,0.2,0.3v3.3h2.1
		c0.1,0,0.2,0,0.3,0.1c0.1,0.1,0.1,0.2,0.1,0.3c0,0.1,0,0.2-0.1,0.3c-0.1,0.1-0.2,0.1-0.3,0.1h-2.1V9c0,0.4,0.1,0.8,0.3,1.1
		c0.3,0.2,0.8,0.4,1.2,0.3H70c0.1,0,0.2,0.1,0.3,0.1c0.1,0.1,0.1,0.2,0.1,0.3c0,0.1-0.1,0.3-0.1,0.4c-0.1,0.1-0.2,0.2-0.4,0.1h-0.5
		C67.9,11.4,67,10.6,67,9z"/>
	<path class="st1" d="M71.8,8.3V4c0-0.1,0.1-0.2,0.2-0.3c0.1-0.1,0.2-0.1,0.4-0.1c0.1,0,0.3,0,0.4,0.1c0.1,0.1,0.2,0.2,0.2,0.3v4.4
		c0,0.5,0.2,1.1,0.6,1.5c0.7,0.8,1.9,0.9,2.7,0.1c0,0,0.1-0.1,0.1-0.1C76.8,9.4,77,8.9,77,8.3V3.9c0-0.1,0.1-0.2,0.2-0.3
		c0.1-0.1,0.2-0.1,0.4-0.1c0.1,0,0.3,0,0.4,0.1C78,3.7,78,3.8,78,3.9v4.4c0,0.8-0.3,1.6-0.9,2.2c-1.2,1.2-3.2,1.2-4.4,0
		C72.2,9.9,71.8,9.1,71.8,8.3L71.8,8.3z"/>
	<path class="st1" d="M79.6,11V4.1c0-0.1,0.1-0.2,0.1-0.3c0.1-0.1,0.2-0.1,0.4-0.1c0.1,0,0.3,0,0.4,0.1c0.1,0.1,0.1,0.2,0.1,0.3v0.8
		c0.2-0.4,0.5-0.7,0.9-0.9c0.4-0.3,0.9-0.4,1.3-0.4h0.6c0.1,0,0.2,0.1,0.3,0.2c0.2,0.2,0.2,0.5,0,0.7c-0.1,0.1-0.2,0.2-0.3,0.2h-0.6
		c-0.6,0-1.1,0.2-1.5,0.7c-0.4,0.4-0.7,1-0.7,1.7v4c0,0.1-0.1,0.2-0.2,0.3c-0.1,0.1-0.2,0.1-0.4,0.1c-0.1,0-0.3,0-0.4-0.1
		C79.6,11.2,79.6,11.1,79.6,11z"/>
	<path class="st1" d="M84.8,9V0.4c0-0.1,0.1-0.2,0.2-0.3C85.1,0,85.2,0,85.4,0c0.1,0,0.3,0,0.4,0.1c0.1,0.1,0.2,0.2,0.2,0.3v3.3H88
		c0.1,0,0.2,0.1,0.3,0.1c0.1,0.1,0.1,0.2,0.1,0.3c0,0.1,0,0.2-0.1,0.3c-0.1,0.1-0.2,0.1-0.3,0.1h-2.1V9c0,0.4,0.1,0.8,0.3,1.1
		c0.3,0.2,0.8,0.4,1.2,0.3h0.5c0.1,0,0.3,0,0.3,0.1c0.1,0.1,0.1,0.2,0.1,0.3c0,0.1-0.1,0.3-0.1,0.4c-0.1,0.1-0.2,0.2-0.3,0.1h-0.4
		C85.7,11.4,84.8,10.6,84.8,9z"/>
	<path class="st1" d="M90,11V0.4c0-0.1,0.1-0.2,0.1-0.3C90.2,0,90.4,0,90.5,0c0.1,0,0.3,0,0.4,0.1C91,0.2,91,0.3,91.1,0.4V11
		c0,0.1-0.1,0.2-0.2,0.3c-0.1,0.1-0.2,0.1-0.4,0.1c-0.1,0-0.3,0-0.4-0.1C90,11.2,90,11.1,90,11z"/>
	<path class="st1" d="M97.3,7.7c0.2,0,0.4,0,0.5,0c0.1,0,0.3-0.1,0.4-0.2c0.2-0.1,0.3-0.2,0.3-0.4c0.1-0.2,0.1-0.5,0.1-0.7
		c0-0.8-0.3-1.6-0.9-2.1c-1.2-1.2-3.1-1.2-4.4,0c-0.6,0.5-0.9,1.3-0.9,2.1v1.8c0,0.9,0.3,1.7,1,2.3c0.7,0.6,1.6,0.9,2.5,0.9
		c0.6,0,1.2-0.1,1.8-0.4c0.5-0.2,0.7-0.5,0.7-0.7c0-0.1-0.1-0.2-0.1-0.3c-0.1-0.1-0.2-0.2-0.3-0.2c-0.1,0-0.3,0.1-0.4,0.2
		c-0.2,0.1-0.4,0.2-0.6,0.3c-0.3,0.1-0.6,0.2-1,0.2c-0.7,0-1.3-0.2-1.8-0.6c-0.5-0.4-0.7-0.9-0.7-1.5V7.8L97.3,7.7z M93.6,6.3
		c0-0.5,0.2-1,0.6-1.4c0.4-0.4,0.9-0.6,1.5-0.6c0.6,0,1.1,0.2,1.5,0.6c0.4,0.4,0.6,0.9,0.6,1.4c0,0.2-0.1,0.4-0.2,0.4
		C97.3,6.9,97.1,7,96.8,7h-3.3V6.3z"/>
</g>
<g>
	<path class="st2" d="M1.5,39.3c-0.8,0-1.1-0.3-1-1.1l1.7-19.4c0-0.6,0.4-1,0.9-1.1c0.1,0,0.2,0,0.2,0h13.4c0.8,0,1,0.3,1,1.1
		l-0.3,3.6c0,0.6-0.4,1-1,1.1c-0.1,0-0.1,0-0.2,0H8.6l-0.3,3.1h5.2c0.8,0,1.1,0.3,1,1.1l-0.3,3.6c0,0.6-0.4,1.1-0.9,1.1
		c-0.1,0-0.1,0-0.2,0H7.8l-0.5,5.9c0,0.6-0.4,1.1-0.9,1.1c-0.1,0-0.1,0-0.2,0H1.5z"/>
	<path class="st2" d="M40.3,39.3c-0.8,0-1.1-0.3-1-1.1L41,18.8c0-0.6,0.4-1,1-1.1c0.1,0,0.1,0,0.2,0h4.1c0.7-0.1,1.3,0.2,1.7,0.8
		l4,9.3l0.8-9c0-0.6,0.4-1,0.9-1.1c0.1,0,0.2,0,0.2,0h4.5c0.8,0,1.1,0.3,1,1.1l-1.7,19.4c0,0.6-0.4,1.1-0.9,1.1c-0.1,0-0.1,0-0.2,0
		h-4c-0.4,0-0.7,0-0.9-0.2c-0.2-0.3-0.4-0.6-0.6-0.9l-4.4-8.9L46,38.3c0,0.6-0.4,1.1-1,1.1c-0.1,0-0.1,0-0.2,0H40.3z"/>
	<path class="st2" d="M61.7,39.3c-0.8,0-1.1-0.3-1-1.1l1.7-19.4c0-0.6,0.4-1.1,1-1.1c0.1,0,0.1,0,0.2,0h10.1
		c3.6-0.2,6.6,2.5,6.8,6.1c0,0.2,0,0.4,0,0.5l-0.7,8.3c-0.4,4.2-2.9,6.6-8,6.6L61.7,39.3z M67.9,33.7h3.2c1.1-0.1,1.9-0.9,2.1-2
		l0.5-6.3c0-1-0.7-1.9-1.8-2h-3.2L67.9,33.7z"/>
	<path class="st2" d="M93.1,17.3c-6.1,0-9.6,3.5-9.9,7.2l-0.8,8.7c-0.3,3.7,2.8,6.6,8.7,6.6c6.2,0,9.6-3,9.9-6.6l0.8-8.7
		C102.1,20.8,99.1,17.3,93.1,17.3z M94.6,31.2c-0.1,1.1-1.1,2-2.9,2s-2.6-1-2.5-2l0.5-5.4c0.1-1.1,1.1-2,2.9-2s2.6,1,2.5,2
		L94.6,31.2z"/>
	<path class="st2" d="M104.3,39.3c-0.8,0-1.1-0.3-1-1.1l1.7-19.4c0-0.6,0.4-1.1,1-1.1c0.1,0,0.1,0,0.2,0h4.8c0.6,0,1.1,0.3,1.3,0.9
		l2.3,4.9c0.2,0.4,0.3,0.5,0.5,0.5h0.3c0.2,0,0.3-0.1,0.6-0.5l3.1-4.9c0.3-0.6,0.8-0.9,1.5-0.9h4.8c0.8,0,1.1,0.3,1,1.1l-1.6,19.4
		c0,0.6-0.4,1-0.9,1.1c-0.1,0-0.2,0-0.2,0h-4.6c-0.8,0-1.1-0.3-1-1.1l0.9-10.6l-2,3.2c-0.3,0.6-0.9,1-1.6,1h-1.3
		c-0.7,0.1-1.3-0.3-1.5-1l-1.5-3.2l-0.9,10.5c0,0.6-0.4,1-0.9,1.1c-0.1,0-0.2,0-0.2,0L104.3,39.3z"/>
	<path class="st2" d="M128.1,39.3c-0.8,0-1.1-0.3-1-1.1l0.3-3.5c0-0.6,0.4-1.1,0.9-1.1c0.1,0,0.1,0,0.2,0h8c0.5,0,0.9-0.4,0.9-0.9
		l0,0c0-0.7-0.2-1-0.7-1l-4.4-0.6c-2.8-0.4-4.5-1.6-4.2-5l0.3-3.2c0.3-3.4,2.8-5.3,6.7-5.3h8.4c0.8,0,1.1,0.3,1,1.1l-0.3,3.6
		c0,0.6-0.4,1.1-0.9,1.1c-0.1,0-0.1,0-0.2,0H136c-0.5,0-0.9,0.4-0.9,0.9c0,0,0,0,0,0c-0.1,0.4,0.2,0.9,0.6,0.9c0,0,0.1,0,0.1,0
		l4.4,0.6c2.8,0.4,4.5,1.6,4.2,5l-0.3,3.2c-0.3,3.4-2.8,5.3-6.7,5.3L128.1,39.3z"/>
	<path class="st2" d="M23.4,39.3h-4.5c-0.8,0-1.1-0.3-1-1.1l1.3-15.1c0.3-3.7,2.2-6.2,9.8-6.2s9.1,2.5,8.8,6.2l-1.3,15.1
		c0,0.6-0.4,1.1-1,1.1c-0.1,0-0.2,0-0.2,0h-4.6c-0.8,0-1.1-0.3-1-1.1l0.4-4.5h-5l-0.4,4.5c0,0.6-0.4,1.1-1,1.1
		C23.5,39.4,23.4,39.4,23.4,39.3z M25.4,28.1h5l0.4-4c0.1-0.8-0.2-1.4-2.4-1.4s-2.6,0.6-2.7,1.4L25.4,28.1z"/>
</g>
</svg>
