<svg id="Layer_1" data-name="Layer 1" xmlns="http://www.w3.org/2000/svg" viewBox="0 0 100 50"><defs><style>.cls-1{fill:#414042;}</style></defs><path class="cls-1" d="M5.62,31.87c-.47,0-.66-.2-.61-.67L6.07,19.07a.64.64,0,0,1,.73-.68h8.35c.47,0,.65.21.61.68l-.19,2.23a.64.64,0,0,1-.73.67H10.06l-.17,2h3.26c.47,0,.66.2.61.67l-.19,2.25a.64.64,0,0,1-.73.67H9.58L9.25,31.2a.63.63,0,0,1-.73.67Z"/><path class="cls-1" d="M29.89,31.87c-.47,0-.66-.2-.62-.67l1.06-12.13a.65.65,0,0,1,.74-.68h2.58a1.15,1.15,0,0,1,1.06.51l2.49,5.8.49-5.63a.64.64,0,0,1,.73-.68h2.81c.47,0,.66.21.62.68L40.78,31.2a.63.63,0,0,1-.73.67H37.56c-.23,0-.42,0-.54-.13a3.17,3.17,0,0,1-.39-.54l-2.72-5.54-.48,5.54a.64.64,0,0,1-.74.67Z"/><path class="cls-1" d="M43.23,31.87c-.47,0-.66-.2-.62-.67l1.06-12.13a.65.65,0,0,1,.74-.68h6.31A4.06,4.06,0,0,1,55,22.53l-.46,5.2c-.22,2.61-1.82,4.14-5,4.14Zm3.88-3.54h2a1.45,1.45,0,0,0,1.31-1.23l.34-3.91A1.17,1.17,0,0,0,49.7,22h-2Z"/><path class="cls-1" d="M62.88,18.09c-3.83,0-6,2.19-6.21,4.48L56.19,28c-.2,2.28,1.73,4.14,5.46,4.14,3.89,0,6-1.86,6.17-4.14l.47-5.42C68.49,20.28,66.61,18.09,62.88,18.09Zm.92,8.72c-.06.66-.67,1.27-1.8,1.27s-1.64-.61-1.58-1.27l.29-3.4c.06-.66.69-1.28,1.81-1.28s1.63.62,1.58,1.28Z"/><path class="cls-1" d="M69.84,31.85c-.47,0-.66-.21-.62-.68L70.28,19a.64.64,0,0,1,.74-.67h3a.8.8,0,0,1,.81.56L76.26,22c.11.23.16.32.31.32h.17c.15,0,.21-.09.36-.32L79,18.93a1,1,0,0,1,.91-.56h3c.47,0,.66.2.61.67L82.53,31.17a.64.64,0,0,1-.73.68H78.92c-.49,0-.66-.21-.62-.68l.58-6.59-1.28,2a1.1,1.1,0,0,1-1,.6H75.8a.9.9,0,0,1-.94-.6l-.92-2-.58,6.59a.64.64,0,0,1-.73.68Z"/><path class="cls-1" d="M84.73,31.85c-.47,0-.66-.21-.62-.68l.2-2.19a.63.63,0,0,1,.73-.67h5a.54.54,0,0,0,.54-.54c0-.43-.12-.6-.43-.64l-2.78-.39c-1.73-.27-2.81-1-2.63-3.11l.18-2c.18-2.13,1.73-3.29,4.16-3.29h5.24c.47,0,.66.2.62.67l-.2,2.23a.63.63,0,0,1-.73.67H89.68a.56.56,0,0,0-.56.57.49.49,0,0,0,.45.59l2.76.38c1.74.26,2.83,1,2.65,3.11l-.17,2c-.19,2.14-1.75,3.3-4.17,3.3Z"/><path class="cls-1" d="M19.3,31.87H16.5c-.47,0-.66-.21-.62-.68l.82-9.43c.2-2.31,1.39-3.89,6.11-3.89s5.68,1.58,5.47,3.89l-.82,9.43a.65.65,0,0,1-.75.68H23.82c-.48,0-.67-.21-.63-.68l.25-2.84H20.3l-.25,2.84A.65.65,0,0,1,19.3,31.87Zm1.3-7h3.15L24,22.41c.05-.52-.15-.9-1.48-.9s-1.62.38-1.66.9Z"/></svg>