<svg id="Layer_1" data-name="Layer 1" xmlns="http://www.w3.org/2000/svg" xmlns:xlink="http://www.w3.org/1999/xlink" viewBox="0 0 300 58"><defs><style>.cls-1{fill:url(#New_Gradient_Swatch_2);}.cls-2{fill:url(#New_Gradient_Swatch_2-2);}</style><linearGradient id="New_Gradient_Swatch_2" x1="157.14" y1="23.78" x2="298.26" y2="34.33" gradientUnits="userSpaceOnUse"><stop offset="0" stop-color="#ec1e24"/><stop offset="0.15" stop-color="#f47f20"/><stop offset="0.3" stop-color="#ffc818"/><stop offset="0.49" stop-color="#89c552"/><stop offset="0.66" stop-color="#17baed"/><stop offset="0.83" stop-color="#6b74b6"/><stop offset="1" stop-color="#b76fac"/></linearGradient><linearGradient id="New_Gradient_Swatch_2-2" x1="3.03" y1="18.98" x2="143.59" y2="29.49" xlink:href="#New_Gradient_Swatch_2"/></defs><path class="cls-1" d="M156.44,37.13c0,.21.1.42.13.64.36,3,2,5.19,4.59,5.82a12.33,12.33,0,0,0,3.43.31,6.07,6.07,0,0,0,6-4.87A9,9,0,0,0,171,36.8c0-7,0-14.09,0-21.13a1.54,1.54,0,0,0-1.5-1.57c-.29,0-.58,0-.87,0-1.5,0-2.05.55-2.05,2.05,0,6.57,0,13.15,0,19.73a7.21,7.21,0,0,1-.29,2,2.44,2.44,0,0,1-2.59,1.68,2.39,2.39,0,0,1-2.52-1.77,9.3,9.3,0,0,1-.26-2.11c0-6.46,0-12.93,0-19.4,0-.22,0-.44,0-.66a1.48,1.48,0,0,0-.89-1.31,2.86,2.86,0,0,0-3.54,1ZM269,28.29l.18.41,5.67,14a2.56,2.56,0,0,0,3.61.94,2,2,0,0,0,.66-1.73q0-12.87,0-25.73a4,4,0,0,0,0-.6,1.57,1.57,0,0,0-1.57-1.44h-.93c-1.41,0-2,.57-2,2v13.7a1.79,1.79,0,0,1-.35-.56c-1.86-4.61-3.74-9.21-5.58-13.83-.57-1.43-1.58-1.38-3-1.25-.87.09-1.32.85-1.32,2V41.94a3.53,3.53,0,0,0,0,.46A1.62,1.62,0,0,0,265.92,44h.87c1.54,0,2.08-.54,2.08-2.08V28.3Zm-87.31,0,.25.58q2.81,6.91,5.59,13.82c.58,1.45,1.58,1.37,3,1.23.85-.08,1.26-.82,1.26-2V22.67c0-2.24,0-4.49,0-6.73A1.63,1.63,0,0,0,190,14.15h-.6c-1.62,0-2.15.53-2.15,2.16q0,6.38,0,12.74v.68a.69.69,0,0,1-.27-.34c-1.89-4.67-3.77-9.34-5.68-14a2.14,2.14,0,0,0-.81-1A2.18,2.18,0,0,0,177,16.34c0,8.33,0,16.67,0,25,0,1.83.28,2.77,2.63,2.64,1.37-.07,1.93-.58,1.93-2V28.32ZM257,29.46A8,8,0,0,1,258.85,35c0,2.35,0,4.71,0,7.06A1.63,1.63,0,0,1,257,43.94c-2.3,0-2.67-.34-2.67-2.64,0-2.07,0-4.13,0-6.2,0-2.43-1.1-3.53-3.54-3.57-.57,0-1.14,0-1.78,0v10.4c0,1.51-.52,2-2.05,2-.25,0-.49,0-.74,0a1.63,1.63,0,0,1-1.65-1.58c0-.18,0-.36,0-.54V16.22c0-1.57.55-2.13,2.11-2.13,2.05,0,4.1-.05,6.13.08,3.66.23,5.42,1.82,6.08,5.43a17.07,17.07,0,0,1-.06,6.49A6.1,6.1,0,0,1,257,29.46ZM249.07,27c.92,0,1.79.07,2.65,0a2.93,2.93,0,0,0,2.81-2.43,8.61,8.61,0,0,0-.1-4.22,2,2,0,0,0-1.82-1.62c-1.16-.09-2.34,0-3.54,0Zm-9.14,2.1c0,2.49,0,5,0,7.46a8.77,8.77,0,0,1-1.3,4.5,5.86,5.86,0,0,1-3.72,2.7,8.66,8.66,0,0,1-4.35,0c-2.94-.77-4.33-2.91-4.89-5.71a13.17,13.17,0,0,1-.23-2.58c0-4.34-.07-8.67,0-13a13.91,13.91,0,0,1,.68-4,5.86,5.86,0,0,1,5.52-4.19,11.21,11.21,0,0,1,3.17.18c2.78.58,4.25,2.51,4.82,5.17a16.44,16.44,0,0,1,.3,3c.05,2.18,0,4.36,0,6.53Zm-10,0c0,2.13,0,4.27,0,6.4a9.26,9.26,0,0,0,.33,2.35,2.31,2.31,0,0,0,2.38,1.76,2.26,2.26,0,0,0,2.46-1.73,9.08,9.08,0,0,0,.38-2.54q.06-6.24,0-12.46a9.55,9.55,0,0,0-.41-2.61,2.56,2.56,0,0,0-4.73,0,9.07,9.07,0,0,0-.41,2.48C229.88,24.76,229.91,26.89,229.91,29Zm67.88-8.53c-.42-3.45-2.36-5.7-5.51-6.23a10.75,10.75,0,0,0-3,0A5.9,5.9,0,0,0,284,18.09c-1.38,3.72-.93,7.18,1.95,10.09,1.06,1.07,2.29,2,3.42,3s2,1.68,2.93,2.62a3.83,3.83,0,0,1,1.11,3.35,2.38,2.38,0,0,1-2.52,2.38,2.4,2.4,0,0,1-2.88-2,5.78,5.78,0,0,1-.2-1.65c.1-2.06-.34-2.85-2.74-2.71-1.15.07-1.8.61-1.78,1.78a23.58,23.58,0,0,0,.24,3.25c.51,3.12,2.22,5,5,5.61a9.92,9.92,0,0,0,4.69-.12,5.56,5.56,0,0,0,4-3.37c1.29-3.35,1.13-6.57-1.33-9.36a38.72,38.72,0,0,0-3.34-3.05c-1.23-1.11-2.53-2.17-3.68-3.36a3.9,3.9,0,0,1-1-3.65,2.72,2.72,0,0,1,5.32-.18,14.34,14.34,0,0,1,.26,2.45c0,1.38.56,1.88,1.94,1.95,1.89.08,2.69-.41,2.57-2.51C297.92,21.86,297.88,21.17,297.79,20.49Zm-86.79,2a8.36,8.36,0,0,1,.5-2.52A2.51,2.51,0,0,1,216,20a6.62,6.62,0,0,1,.45,2.39c-.08,2.07.52,2.77,2.78,2.63,1.11-.07,1.78-.63,1.75-1.73a22.1,22.1,0,0,0-.29-3.45c-.49-2.54-1.78-4.54-4.37-5.3a10.72,10.72,0,0,0-3.61-.34,6.08,6.08,0,0,0-5.33,3.66,10.68,10.68,0,0,0-.95,4.59c0,4.38,0,8.76,0,13.13a12.92,12.92,0,0,0,.29,2.71c.61,2.67,2,4.72,4.81,5.39a10.71,10.71,0,0,0,3.1.22A6,6,0,0,0,220,40.46a11.78,11.78,0,0,0,1-6,1.51,1.51,0,0,0-1.43-1.43,9.38,9.38,0,0,0-1.06,0c-1.39,0-2,.61-2,2a15.27,15.27,0,0,1-.27,2.71,2.18,2.18,0,0,1-2.25,1.8A2.29,2.29,0,0,1,211.39,38a8.14,8.14,0,0,1-.39-2.34c-.06-2.18,0-4.36,0-6.54S210.93,24.67,211,22.48ZM197.24,42.07a2.34,2.34,0,0,0,.29,1.2c.65,1.08,3.32,1,3.92-.07a3.3,3.3,0,0,0,.28-1.47c0-8.34,0-16.67,0-25,0-1.71-.26-2.72-2.63-2.58-1.32.07-1.9.6-1.9,1.93v13C197.23,33.4,197.22,37.74,197.24,42.07Z"/><path class="cls-2" d="M2,36.77c0,.22.1.43.13.64.36,3,2,5.14,4.58,5.86a9.77,9.77,0,0,0,5,0,5.49,5.49,0,0,0,4.22-3.76,12.27,12.27,0,0,0,.64-3.64c.07-5.31,0-10.63,0-15.94,0-1.53,0-3.06,0-4.6a1.56,1.56,0,0,0-1.44-1.62,7.34,7.34,0,0,0-.94,0c-1.5,0-2.05.55-2.05,2,0,6.58,0,13.16,0,19.74a6.89,6.89,0,0,1-.29,2,2.41,2.41,0,0,1-2.59,1.68,2.37,2.37,0,0,1-2.51-1.77,8.76,8.76,0,0,1-.27-2.1c0-5.07,0-10.14,0-15.2V15.42a1.53,1.53,0,0,0-.9-1.51A2.85,2.85,0,0,0,2,14.9ZM27.22,28c.09.19.18.39.26.58Q30.27,35.41,33,42.29a1.81,1.81,0,0,0,2,1.33h.54a1.62,1.62,0,0,0,1.77-1.78c0-.38,0-.75,0-1.13v-25a1.68,1.68,0,0,0-1.07-1.81,3.62,3.62,0,0,0-1-.1c-2.05,0-2.47.4-2.47,2.44q0,6.23,0,12.46c0,.23,0,.45,0,.68a2,2,0,0,1-.38-.66c-1.85-4.57-3.68-9.14-5.56-13.69A2.12,2.12,0,0,0,26,14a2.17,2.17,0,0,0-3.4,2V41.4a5.29,5.29,0,0,0,0,.8,1.56,1.56,0,0,0,1.58,1.41H25c1.62,0,2.12-.5,2.12-2.09V28Zm79.58.77c2.06,3.13,2.21,6.58,1.35,10.1a5.91,5.91,0,0,1-5.85,4.75c-1.88.09-3.77,0-5.66,0a1.53,1.53,0,0,1-1.51-1.41,5,5,0,0,1,0-.67V15.93c0-1.64.5-2.14,2.16-2.13s3.15,0,4.73,0a6.18,6.18,0,0,1,6.3,5.32,13,13,0,0,1-.66,8C107.4,27.66,107.09,28.18,106.8,28.72ZM99.65,39.17c.63,0,1.19,0,1.74,0a2.39,2.39,0,0,0,2.47-1.92,8.56,8.56,0,0,0,0-4.41,2.29,2.29,0,0,0-2-1.86,20,20,0,0,0-2.19,0Zm0-12.71c.68,0,1.3,0,1.91,0a2.38,2.38,0,0,0,2.36-2.06,8.57,8.57,0,0,0,0-4.21,2.31,2.31,0,0,0-1.37-1.69,7.48,7.48,0,0,0-2.87-.24Zm-44-7.08a6.3,6.3,0,0,0-5.34-5.47,10.68,10.68,0,0,0-3-.05,5.82,5.82,0,0,0-5,3.31c-1.45,3.14-1.49,6.31.54,9.24a18.16,18.16,0,0,0,2.83,3c1.16,1.05,2.49,1.93,3.65,3a9.47,9.47,0,0,1,1.84,2.34,3.33,3.33,0,0,1-.69,4A2.86,2.86,0,0,1,46,37.07a5.71,5.71,0,0,1-.19-1.64c.1-2-.31-2.82-2.71-2.68-1.18.07-1.83.61-1.81,1.81a23.27,23.27,0,0,0,.23,3.12c.49,3.18,2.22,5.15,5.06,5.7a11,11,0,0,0,2.92.17c2.52-.18,4.67-1.15,5.67-3.63,1.37-3.4,1.14-6.68-1.42-9.51a40.8,40.8,0,0,0-3.15-2.86c-1.27-1.14-2.6-2.22-3.78-3.45a3.91,3.91,0,0,1-.92-3.73,2.42,2.42,0,0,1,2.44-2.12,2.38,2.38,0,0,1,2.78,1.84,12.78,12.78,0,0,1,.34,2.69c.06,1.34.57,1.85,1.92,1.91,1.87.08,2.71-.31,2.63-2.54C55.85,21.23,55.78,20.3,55.6,19.38ZM140,18.25c2,.07,2.73-.35,2.61-2.62-.07-1.23-.6-1.83-1.85-1.83-3,0-6,0-9.07,0a1.64,1.64,0,0,0-1.87,1.89q0,13,0,26.07c0,1.27.6,1.86,1.89,1.86,2.78,0,5.56,0,8.33,0,2,0,2.68-.42,2.57-2.59-.07-1.26-.61-1.86-1.9-1.86H134.3V30.92h5.1a3,3,0,0,0,.79-.07,1.58,1.58,0,0,0,1.2-1.7c0-1,.18-2.12-1.09-2.58a2.25,2.25,0,0,0-.78-.08h-5.23V18.24C136.24,18.24,138.11,18.19,140,18.25Zm-77,.89V41.41c0,.17,0,.35,0,.53a1.58,1.58,0,0,0,1.62,1.65h.8c1.44,0,2-.57,2-2V18.24c1.25,0,2.41,0,3.56,0a1.58,1.58,0,0,0,1.64-1.64v-.8c0-1.5-.55-2-2-2-3.38,0-6.76,0-10.14,0-1.89,0-2.78.28-2.65,2.68.07,1.23.63,1.83,1.86,1.84h3.34ZM90.07,42c-.28-2.63-.58-5.26-.84-7.88,0-.47-.31-.51-.67-.54-4.17-.45-8.34-.9-12.51-1.39-.49-.06-.67.07-.81.5-.8,2.37-1.62,4.74-2.43,7.11a2.16,2.16,0,0,0,2,3.13l3.24.35L88,44.33A2.08,2.08,0,0,0,90.07,42Zm27.56-3.68V19.91c0-1.49,0-3,0-4.46A1.57,1.57,0,0,0,116,13.8c-.25,0-.49,0-.74,0-1.61,0-2.14.53-2.14,2.16V41.48a4,4,0,0,0,.08.92,1.44,1.44,0,0,0,1.41,1.2q4.86,0,9.72,0a1.47,1.47,0,0,0,1.44-1.39,8.42,8.42,0,0,0,0-.87c0-1.63-.52-2.16-2.14-2.16h-6Zm-28.92-9a4.21,4.21,0,0,0,0-.44c-.28-3.21-.57-6.42-.84-9.62,0-.4-.21-.47-.54-.5-2.21-.24-4.41-.48-6.62-.74-.43-.05-.52.19-.62.5-.57,1.66-1.15,3.31-1.72,5-.51,1.46-1,2.93-1.55,4.52ZM86.27,1H86.1c-1.46,4.24-2.91,8.48-4.38,12.8l5.75.63C87.06,9.87,86.67,5.44,86.27,1Z"/></svg>