<svg id="Layer_1" data-name="Layer 1" xmlns="http://www.w3.org/2000/svg" xmlns:xlink="http://www.w3.org/1999/xlink" viewBox="0 0 90 50"><defs><style>.cls-1{fill:url(#New_Gradient_Swatch_2);}</style><linearGradient id="New_Gradient_Swatch_2" x1="4.86" y1="21.02" x2="86.08" y2="27.09" gradientUnits="userSpaceOnUse"><stop offset="0" stop-color="#d93932"/><stop offset="0.15" stop-color="#e5843b"/><stop offset="0.3" stop-color="#f6c94a"/><stop offset="0.49" stop-color="#96c362"/><stop offset="0.66" stop-color="#57b8e8"/><stop offset="0.83" stop-color="#6d75b1"/><stop offset="1" stop-color="#ad73a9"/></linearGradient></defs><path class="cls-1" d="M5,21.16c0,.12.06.24.07.37a3.58,3.58,0,0,0,2.59,3.3,5.53,5.53,0,0,0,2.8,0,3.13,3.13,0,0,0,2.39-2.13,7.25,7.25,0,0,0,.36-2.06c0-3,0-6,0-9,0-.87,0-1.74,0-2.6a.87.87,0,0,0-.81-.92,4.69,4.69,0,0,0-.53,0c-.85,0-1.16.31-1.16,1.15q0,5.58,0,11.15a3.73,3.73,0,0,1-.16,1.11,1.36,1.36,0,0,1-1.46,1,1.33,1.33,0,0,1-1.42-1,4.73,4.73,0,0,1-.15-1.19q0-4.29,0-8.59V9.1A.86.86,0,0,0,7,8.25a1.6,1.6,0,0,0-2,.56Zm0,20c0,.12.06.23.07.36a3.55,3.55,0,0,0,2.6,3.29A6.94,6.94,0,0,0,9.6,45,3.43,3.43,0,0,0,13,42.21,4.93,4.93,0,0,0,13.21,41c0-4,0-8,0-11.94a.88.88,0,0,0-.85-.89c-.16,0-.33,0-.49,0-.85,0-1.16.31-1.16,1.15q0,5.58,0,11.15a3.77,3.77,0,0,1-.16,1.11,1.37,1.37,0,0,1-1.46.95,1.34,1.34,0,0,1-1.43-1,4.73,4.73,0,0,1-.14-1.19c0-3.65,0-7.31,0-11V29A.86.86,0,0,0,7,28.21a1.61,1.61,0,0,0-2,.57Zm63.59-5,.11.24,3.2,7.91a1.44,1.44,0,0,0,2,.53,1.1,1.1,0,0,0,.37-1V29.3a1.94,1.94,0,0,0,0-.34.88.88,0,0,0-.88-.81h-.53c-.8,0-1.12.32-1.12,1.12V37a1,1,0,0,1-.2-.32c-1-2.6-2.11-5.2-3.15-7.81-.32-.81-.9-.78-1.7-.7-.49,0-.74.47-.74,1.13V43.85a2.43,2.43,0,0,0,0,.27.92.92,0,0,0,.9.88h.49c.87,0,1.18-.3,1.18-1.17V36.15Zm-49.34,0,.15.33,3.15,7.81c.33.82.9.77,1.71.7.47,0,.71-.47.71-1.13V29.16a.93.93,0,0,0-1-1h-.34c-.91,0-1.21.3-1.21,1.22V37a.33.33,0,0,1-.15-.19q-1.61-4-3.22-7.91a1.31,1.31,0,0,0-.45-.56,1.23,1.23,0,0,0-2,1.1c0,4.71,0,9.42,0,14.13,0,1,.15,1.56,1.48,1.49.77,0,1.09-.33,1.09-1.11V36.16Zm0-20,.15.33Q21,20.4,22.54,24.28a1,1,0,0,0,1.12.75H24a.91.91,0,0,0,1-1V9.26a.94.94,0,0,0-.61-1,2,2,0,0,0-.55-.06c-1.16,0-1.4.23-1.4,1.38v7c0,.13,0,.26,0,.39a1.2,1.2,0,0,1-.21-.38C21.14,14,20.1,11.45,19,8.88a1.17,1.17,0,0,0-.49-.58,1.22,1.22,0,0,0-1.92,1.13V23.78a2.26,2.26,0,0,0,0,.45.89.89,0,0,0,.89.8H18c.92,0,1.2-.28,1.2-1.18V16.2Zm45,.44a7,7,0,0,1,.76,5.7A3.34,3.34,0,0,1,61.68,25c-1.06.06-2.13,0-3.2,0a.86.86,0,0,1-.85-.8,2.38,2.38,0,0,1,0-.38V9.39c0-.93.28-1.21,1.22-1.21s1.78,0,2.67,0a3.49,3.49,0,0,1,3.56,3,7.31,7.31,0,0,1-.37,4.5C64.56,16,64.39,16.31,64.23,16.62Zm-4.05,5.9c.36,0,.67,0,1,0a1.34,1.34,0,0,0,1.39-1.08,4.71,4.71,0,0,0,0-2.5,1.28,1.28,0,0,0-1.14-1.05,10.21,10.21,0,0,0-1.24,0Zm0-7.19c.39,0,.74,0,1.08,0a1.36,1.36,0,0,0,1.34-1.16,4.91,4.91,0,0,0,0-2.38,1.32,1.32,0,0,0-.77-1,4.25,4.25,0,0,0-1.63-.13ZM61.83,36.8a4.57,4.57,0,0,1,1.05,3.14c0,1.33,0,2.67,0,4a.93.93,0,0,1-1,1.05c-1.3,0-1.51-.19-1.51-1.5s0-2.33,0-3.5a1.76,1.76,0,0,0-2-2h-1v5.88c0,.85-.29,1.14-1.16,1.14h-.41a.93.93,0,0,1-.93-.9c0-.1,0-.2,0-.3V29.32c0-.89.32-1.21,1.2-1.2,1.16,0,2.31,0,3.46,0a3.26,3.26,0,0,1,3.44,3.07,9.45,9.45,0,0,1,0,3.67A3.45,3.45,0,0,1,61.83,36.8Zm-4.48-1.41a15,15,0,0,0,1.5,0A1.65,1.65,0,0,0,60.43,34a5,5,0,0,0,0-2.39,1.13,1.13,0,0,0-1-.91c-.66-.05-1.32,0-2,0Zm-5.17,1.19c0,1.4,0,2.81,0,4.21a4.86,4.86,0,0,1-.72,2.54,3.36,3.36,0,0,1-2.11,1.53,5,5,0,0,1-2.46,0,3.74,3.74,0,0,1-2.76-3.23A7.15,7.15,0,0,1,44,40.18c0-2.45,0-4.9,0-7.34a8.08,8.08,0,0,1,.38-2.29,3.33,3.33,0,0,1,3.12-2.37,6.76,6.76,0,0,1,1.8.1A3.43,3.43,0,0,1,52,31.21a9.48,9.48,0,0,1,.17,1.68c0,1.23,0,2.46,0,3.69Zm-5.66,0c0,1.21,0,2.41,0,3.62a5.48,5.48,0,0,0,.19,1.33,1.29,1.29,0,0,0,1.34,1,1.27,1.27,0,0,0,1.39-1,5.08,5.08,0,0,0,.22-1.44q0-3.53,0-7a5.64,5.64,0,0,0-.23-1.48,1.45,1.45,0,0,0-2.68,0,5.13,5.13,0,0,0-.23,1.4C46.5,34.14,46.52,35.35,46.52,36.55Zm38.36-4.82a3.69,3.69,0,0,0-3.11-3.52,6.61,6.61,0,0,0-1.72,0,3.34,3.34,0,0,0-3,2.2,5,5,0,0,0,1.1,5.7c.6.6,1.29,1.11,1.93,1.67s1.14,1,1.65,1.48a2.15,2.15,0,0,1,.63,1.89A1.34,1.34,0,0,1,81,42.47a1.36,1.36,0,0,1-1.63-1.15,3.25,3.25,0,0,1-.11-.93c0-1.16-.19-1.61-1.55-1.53-.65,0-1,.35-1,1a12.45,12.45,0,0,0,.13,1.84,3.51,3.51,0,0,0,2.83,3.17,5.53,5.53,0,0,0,2.65-.07,3.13,3.13,0,0,0,2.24-1.9,4.84,4.84,0,0,0-.75-5.29,22,22,0,0,0-1.89-1.72c-.7-.63-1.43-1.23-2.08-1.9a2.25,2.25,0,0,1-.55-2.07,1.39,1.39,0,0,1,1.45-1.26,1.38,1.38,0,0,1,1.56,1.17,6.94,6.94,0,0,1,.15,1.38c0,.78.32,1.06,1.1,1.1,1.06,0,1.52-.23,1.45-1.42C85,32.51,84.93,32.12,84.88,31.73ZM35.29,11.34a3.57,3.57,0,0,0-3-3.1,6.6,6.6,0,0,0-1.72,0,3.28,3.28,0,0,0-2.81,1.88,5,5,0,0,0,.3,5.22A10.22,10.22,0,0,0,29.64,17c.66.59,1.41,1.09,2.06,1.69a5.1,5.1,0,0,1,1,1.32,1.88,1.88,0,0,1-.39,2.24,1.61,1.61,0,0,1-2.51-.92,3.64,3.64,0,0,1-.11-.93c.06-1.11-.17-1.59-1.53-1.51-.66,0-1,.35-1,1a13,13,0,0,0,.13,1.76,3.49,3.49,0,0,0,2.86,3.22,6.08,6.08,0,0,0,1.65.09,3.38,3.38,0,0,0,3.21-2,4.8,4.8,0,0,0-.81-5.37A21.12,21.12,0,0,0,32.44,16C31.72,15.31,31,14.7,30.31,14a2.17,2.17,0,0,1-.52-2.1,1.53,1.53,0,0,1,3-.16,7.71,7.71,0,0,1,.19,1.52c0,.75.32,1,1.08,1.08,1.06,0,1.53-.18,1.49-1.44C35.43,12.38,35.39,11.85,35.29,11.34Zm.54,21.51a4.67,4.67,0,0,1,.29-1.42,1.42,1.42,0,0,1,2.54,0,3.71,3.71,0,0,1,.25,1.35c0,1.17.3,1.56,1.58,1.49.62,0,1-.36,1-1a11.37,11.37,0,0,0-.16-1.94,3.5,3.5,0,0,0-2.47-3,6.1,6.1,0,0,0-2-.19,3.43,3.43,0,0,0-3,2.07,5.94,5.94,0,0,0-.54,2.59c0,2.48,0,4.95,0,7.42a7.1,7.1,0,0,0,.16,1.53,3.62,3.62,0,0,0,2.72,3.05,5.7,5.7,0,0,0,1.75.12,3.39,3.39,0,0,0,3-1.95,6.65,6.65,0,0,0,.58-3.38.85.85,0,0,0-.81-.8,4,4,0,0,0-.6,0c-.78,0-1.11.34-1.13,1.13a8.52,8.52,0,0,1-.16,1.52,1.21,1.21,0,0,1-1.27,1,1.28,1.28,0,0,1-1.44-.89,4.58,4.58,0,0,1-.23-1.33c0-1.23,0-2.46,0-3.69S35.8,34.1,35.83,32.85ZM83,10.7c1.13,0,1.54-.2,1.47-1.48,0-.7-.33-1-1-1H78.27c-.72,0-1,.34-1,1.07q0,7.37,0,14.73c0,.72.34,1.05,1.07,1.05,1.57,0,3.14,0,4.71,0,1.14,0,1.51-.24,1.44-1.46,0-.72-.34-1.06-1.07-1.06h-3.6V17.86h2.88a2.28,2.28,0,0,0,.45,0,.89.89,0,0,0,.67-1c0-.58.11-1.2-.61-1.46a1.68,1.68,0,0,0-.45-.05H79.76V10.69C80.86,10.69,81.92,10.66,83,10.7Zm-43.54.5V24.08a.89.89,0,0,0,.92.94h.45c.82,0,1.13-.32,1.13-1.14q0-6.37,0-12.74v-.45h2a.89.89,0,0,0,.92-.93c0-.15,0-.3,0-.45,0-.85-.3-1.16-1.15-1.16-1.91,0-3.82,0-5.73,0-1.07,0-1.57.15-1.49,1.51,0,.69.35,1,1,1h1.88ZM54.77,24.1c-.16-1.48-.33-3-.48-4.45,0-.26-.17-.28-.37-.3-2.36-.26-4.72-.51-7.07-.79-.28,0-.38,0-.46.28-.45,1.35-.92,2.68-1.37,4a1.21,1.21,0,0,0,1.14,1.76l1.84.2,5.57.6A1.17,1.17,0,0,0,54.77,24.1ZM70.35,22V11.64c0-.85,0-1.69,0-2.53a.88.88,0,0,0-.92-.93H69c-.92,0-1.21.3-1.21,1.22q0,7.22,0,14.42a2.32,2.32,0,0,0,0,.53.82.82,0,0,0,.8.67c1.83,0,3.66,0,5.49,0a.84.84,0,0,0,.82-.79,3.85,3.85,0,0,0,0-.48c0-.93-.3-1.23-1.21-1.23h-3.4ZM28.06,43.93a1.31,1.31,0,0,0,.16.68,1.56,1.56,0,0,0,2.22,0,2,2,0,0,0,.16-.84c0-4.71,0-9.42,0-14.13,0-1-.15-1.53-1.49-1.46-.74,0-1.07.34-1.07,1.09v7.35Q28.05,40.26,28.06,43.93ZM54,16.94c0-.11,0-.18,0-.25-.16-1.81-.32-3.62-.47-5.44,0-.22-.13-.26-.31-.28-1.25-.13-2.5-.27-3.74-.42-.25,0-.29.11-.35.29-.32.94-.65,1.87-1,2.81L47.3,16.2ZM52.62,1h-.1L50.05,8.18l3.25.36Z"/></svg>